<svg xmlns="http://www.w3.org/2000/svg" xmlns:xlink="http://www.w3.org/1999/xlink" viewBox="0 0 515.6 793.37"><defs><style>.cls-1{isolation:isolate;}.cls-2{opacity:0.1;}.cls-3{fill:#160f13;}.cls-4{fill:#353033;}.cls-5{fill:#868889;}.cls-6{fill:#7a8789;}.cls-7{fill:#bfc3c4;}.cls-8{fill:#879293;}.cls-9{opacity:0.92;mix-blend-mode:multiply;fill:url(#linear-gradient);}.cls-10{fill:#fe6f21;}.cls-11{fill:#fff;}.cls-12{opacity:0.2;}.cls-13{fill:#464647;}.cls-14{fill:#404772;}.cls-15{fill:#faa181;}.cls-16{fill:#ffcca1;}.cls-17{fill:#797ea6;}.cls-18{fill:#cbd2ef;}.cls-19{fill:#939cce;}.cls-20{fill:#f26e4e;}.cls-21{fill:#1e1e1e;}.cls-22{fill:#282828;}.cls-23{fill:#0c0c0c;}.cls-24{fill:#bf8d00;}.cls-25{fill:#936900;}.cls-26{fill:#ffe1ca;}.cls-27{fill:#7c3505;}.cls-28{fill:#fccaca;}.cls-29{fill:#6aa075;}.cls-30{fill:#001826;}.cls-31{fill:#3f2f39;}.cls-32{fill:#c13a36;}.cls-33{fill:#f27f7c;}.cls-34{fill:#e8524a;}.cls-35{fill:#ffad8d;}.cls-36{fill:#ce6c4e;}.cls-37{fill:#a7a9aa;}.cls-38{fill:#c4b41e;}.cls-39{fill:#212b47;}.cls-40{fill:#3b4772;}.cls-41{fill:#43527c;}.cls-42{fill:#20a9e5;}.cls-43{fill:#1c253d;}.cls-44{fill:#e5d82c;}.cls-45{fill:#f2af08;}.cls-46{fill:#ffc648;}.cls-47{fill:#fff257;}</style><linearGradient id="linear-gradient" x1="5.24" y1="636.35" x2="515.6" y2="636.35" gradientUnits="userSpaceOnUse"><stop offset="0" stop-color="#67308c"/><stop offset="1" stop-color="#e84c2f"/></linearGradient></defs><title>Artboard 11ldpi</title><g class="cls-1"><g id="Layer_1" data-name="Layer 1"><path class="cls-2" d="M37.58,654.56C-13.33,723.17,449.79,839.21,504.46,774.3,564.52,703,102.54,567,37.58,654.56Z"/><path class="cls-3" d="M68.87,632.62c-8.44.28-15.59,4-20,9.51-3.49,4.41-10.74,15.1-10,21.14C40.5,676.9,62.62,688.51,77.78,688c10.45-.35,15.89-11.94,19.6-19.82a21.58,21.58,0,0,0,1.88-11.8C97.63,642.75,84,632.12,68.87,632.62Z"/><path class="cls-4" d="M63.36,643.13c-15.16.5-26.14,12-24.51,25.58S54.07,693,69.23,692.47s26.13-12,24.52-25.58S78.51,642.63,63.36,643.13Z"/><path class="cls-5" d="M65,657.2c-7.41.25-12.78,5.85-12,12.52s7.45,11.87,14.87,11.63,12.78-5.85,12-12.52S72.45,657,65,657.2Z"/><path class="cls-3" d="M66.71,657.15c-5.84.18-10.08,4.61-9.45,9.86s5.87,9.37,11.72,9.18,10.09-4.62,9.46-9.88S72.56,657,66.71,657.15Z"/><path class="cls-6" d="M65.67,662.51c-3.25.11-5.6,2.57-5.25,5.49s3.26,5.19,6.51,5.09,5.59-2.57,5.24-5.48S68.91,662.41,65.67,662.51Z"/><path class="cls-7" d="M66.82,666.11a3,3,0,0,0-3.13,3.26,3.71,3.71,0,0,0,3.88,3,3,3,0,0,0,3.12-3.26A3.72,3.72,0,0,0,66.82,666.11Z"/><path class="cls-3" d="M346.53,721.64c-7.81,2.58-13.4,7.88-15.85,14.12-1.95,5-5.54,16.63-3.07,21.9,5.58,11.89,29.71,16.29,43.74,11.66,9.67-3.2,11.3-15.19,12.42-23.36A19.76,19.76,0,0,0,382,734.77C376.44,722.88,360.55,717,346.53,721.64Z"/><path class="cls-4" d="M344.5,732.67c-14,4.64-20.87,18-15.3,29.92s21.47,17.76,35.5,13.13,20.87-18,15.29-29.92S358.52,728,344.5,732.67Z"/><path class="cls-5" d="M350.26,745c-6.86,2.27-10.21,8.82-7.48,14.64s10.5,8.7,17.36,6.43,10.22-8.83,7.49-14.65S357.13,742.68,350.26,745Z"/><path class="cls-3" d="M351.82,744.43c-5.41,1.79-8.06,7-5.9,11.55s8.28,6.86,13.69,5.06,8.06-6.95,5.91-11.54S357.23,742.65,351.82,744.43Z"/><path class="cls-6" d="M352.44,749.59c-3,1-4.47,3.86-3.28,6.41s4.6,3.81,7.6,2.81,4.47-3.86,3.28-6.41S355.44,748.6,352.44,749.59Z"/><path class="cls-7" d="M354.58,752.53a2.79,2.79,0,0,0-1.94,3.81,3.73,3.73,0,0,0,4.52,1.67,2.8,2.8,0,0,0,1.94-3.81A3.72,3.72,0,0,0,354.58,752.53Z"/><path class="cls-8" d="M265,602C134,563.82,36.89,527,9.62,553.07,5,557.47,1.08,569.75.52,572.42-8.41,615.15,98,672.14,238.69,710.89s262.24,44.55,271.16,1.82S404.83,642.76,265,602Z"/><path class="cls-9" d="M270.28,591.13C130.49,550.39,14.7,518.81,5.77,561.53S103.28,661.26,243.93,700s262.24,44.55,271.17,1.82S410.08,631.88,270.28,591.13Z"/><path class="cls-10" d="M509.29,700.71c-8.77,27.37-93.59,35.1-204.59,7S167.63,649.33,180.19,613,269.6,594,350.52,616.76,520.16,666.78,509.29,700.71Z"/><path class="cls-4" d="M418.38,635c33.43,8.11,73.91,29.37,71.45,65.12-2.51,36.48-43.89,29.46-41,6.2C453.17,671,430.89,642.87,418.38,635Z"/><path class="cls-10" d="M428.88,638.86c18.11,3.81,54.77,20.34,54.84,48.39.07,25.49-25.11,20.31-26.87-2.2C455.16,663.48,440,648.62,428.88,638.86Z"/><path class="cls-11" d="M285,660.23c-62.94,9.6-120,21.34-149.88-14.77C96.94,599.27,124.61,552,124.61,552s-96-26-115,1.12C-12.55,584.8,48.05,628.51,120,657.37c15.33,6.39,46,19.88,75.11,28,7.93.66,26.11-.32,33.48-1.17,39.7-4.57,76.57,3.82,77.78,22.7a17.24,17.24,0,0,0,3.63,9.18s40,9.95,64.17,11a17.48,17.48,0,0,0,5-7.82C387.6,692,348,650.62,285,660.23Z"/><path class="cls-4" d="M59.19,626.63c26.23,13.73,62,7,53-15.17s-40-52.81-22.44-67.19c0,0-21.09-3.67-30.55-3.17C49.67,559.81,74.59,577.39,91,598.93s3,31.34-15.62,25.88-38.5-13-51.95-24.12A160.86,160.86,0,0,0,59.19,626.63Z"/><path class="cls-10" d="M32.61,541.29c-6.52,11.65,37.79,35.2,40.88,55.33,3,19.17-14.69,14.84-29.14,1.43-12.22-11.34-25.62-12.67-31.95-10.26C.06,569.44,2.42,546.25,32.61,541.29Z"/><path class="cls-10" d="M32.61,541.29c-6.52,11.65,37.79,35.2,40.88,55.33,3,19.17-14.69,14.84-29.14,1.43-12.22-11.34-25.62-12.67-31.95-10.26"/><path class="cls-5" d="M57.21,655.37c-5.54,3.55-12.43,15-1.51,24.53,9.74,8.51,22.83,3,25.64,1s8.35.69-1.36,6.67c-9.89,6.09-28.69,3.22-36.25-12.39s6.4-24.25,12.39-25.43S60.24,653.43,57.21,655.37Z"/><path class="cls-5" d="M345.85,742.35c-5.67,3.42-13,14.39-2.46,23.5,9.37,8.14,22.64,2.86,25.51.9s8.31.64-1.61,6.39c-10.1,5.86-28.73,3.17-35.66-11.77S339,738.11,345,737,349,740.48,345.85,742.35Z"/><path class="cls-12" d="M137.62,620.54C202,565.55,415,649.17,376,685.48,338.8,720.08,88.92,662.11,137.62,620.54Z"/><path class="cls-12" d="M139,638.86c1.69,12.5,37.68,26.58,87.72,5s7-41.17-19.19-33.22"/><path class="cls-12" d="M250.05,676.12c-1.55,7.26,46.65,24.09,74.7,1.74,25.87-20.61,2.25-43.62-14.75-50.14"/><path class="cls-3" d="M213.39,5.91c3.37-8.79,18.91-7.59,18.75,2.36S211.42,12,213.39,5.91Z"/><path class="cls-13" d="M221.43.09c-4,.28-6.91,5,.24,5.46S229.19-.46,221.43.09Z"/><path class="cls-14" d="M204.17,472.34c-7.84,3.34-40.18-16.27-40.58-32.74s34.34-11.68,34.34-11.68S215,467.73,204.17,472.34Z"/><path class="cls-15" d="M196.48,380.1s-64.33,40.17-75.33,66.38,17.51,48,50,28.29,75-31.19,90.17-57.17-3.89-44.16-3.89-44.16"/><path class="cls-16" d="M151,414.94s-15.85,9.59-16.3,13,35.46,25.89,35.75,26c8.29-1.84,13.48-8.64,13.48-8.64C179.14,435.2,161,417.86,151,414.94Z"/><path class="cls-17" d="M202,373.44c-18,5.17-52.26,34-52.66,37.34,6.06,3.17,39.16,25.35,54.84,61.56,15.44-4.68,64.05-32.57,76.51-53.27s.76-49.72.76-49.72"/><polyline class="cls-18" points="240.09 441.5 202.21 468.07 203.54 470.93 242.02 446.74"/><path class="cls-19" d="M197.49,373.44c-16.35,10-46.38,33.82-46.47,36s8.88,4.41,23.26,18.44,18.89,21.56,22,22.94,28.63-25.54,34.47-31.58c5.23-8.38,6.94-21.44,6.94-21.44-14.38,1.33-37.25-13.86-38.29-21.65"/><path class="cls-18" d="M162.54,397.94s12.23,5.52,24.11,19,20.09,28.33,30.11,50.1l3.24-1s-16.46-35.78-31-51.59c-12.26-13.31-23.46-18.89-23.46-18.89Z"/><path class="cls-18" d="M182.62,383.5s12.23,5.51,24.11,19,20.1,28.34,30.11,50.1l3.25-1S223.62,415.8,209,400c-12.26-13.3-23.46-18.88-23.46-18.88Z"/><path class="cls-18" d="M201.23,358.83s12.24,5.51,24.12,19,20.09,28.34,30.11,50.1l3.24-1s-16.46-35.77-31-51.59c-12.27-13.3-23.46-18.88-23.46-18.88Z"/><path class="cls-18" d="M154,413.67c5.79-9.33,46.85-38.18,46.85-38.18l2.67,1.62-46.77,38.48Z"/><path class="cls-18" d="M222.85,388.09c-13.54,6.6-47.12,38.35-48.79,42l2.73,2.7c13.08-13.2,39.34-39.69,51.61-44"/><path class="cls-18" d="M245.37,404.43C227.12,417.25,191.86,450,191.86,450l2.5,2.59s39.31-35.48,55.88-45.7"/><path class="cls-14" d="M236,432c-6,13.28,2.52,29.67,28.55,40.73s51,8.94,51.49-11.81C316.57,438.18,256.9,385.58,236,432Z"/><path class="cls-15" d="M264.06,379.07s-31.87,59.24-32.77,88.8,32.73,48.39,55.77,21.39,72.46-76,58.75-116.53c-8.55-25.27-21.6-36.88-21.6-36.88"/><path class="cls-16" d="M242,431.29c-2.94,6.66-7.28,21.3-7.28,21.3L276,466a97.27,97.27,0,0,0,18.29-19.29C284.27,431.36,256.4,423.66,242,431.29Z"/><path class="cls-17" d="M267.2,369.35s-25,36.46-31.41,63c42.49-20.21,78.74,25,76,40.31,8.73-9.7,33.24-52.79,36.5-70,4.79-25.31-6.7-46.44-14.82-57.53C311.27,328.25,267.2,369.35,267.2,369.35Z"/><path class="cls-19" d="M251.55,383.63c-8.32,12.83-14.87,42.24-16.08,47.55,1.42-1.11,10.68-6.85,27.77-5,26.11,2.81,38.48,21.37,43.75,20.55s31.19-36.6,32.57-56.17a54.55,54.55,0,0,0-9-33.6c-15.94-5.19-44.13,24.26-73.8,27"/><path class="cls-18" d="M240.09,415.6a53.4,53.4,0,0,1,51.48-.66c15.77,8.54,27.14,27.29,33,39l2-3.39c-4.11-12-16.17-32.87-34.08-40.09-29.52-11.89-51.06,0-51.06,0Z"/><path class="cls-18" d="M248.87,389c15.79-9.09,33.24-9.84,49.28-1.83,19.14,9.55,33.83,30.66,39.67,42.33l1.87-3.87c-4.1-11.95-23.19-34.75-40.92-42.4-28.42-12.26-49,2.08-49,2.08Z"/><path class="cls-18" d="M257.85,363c15.2-10.06,32.57-11.91,49.08-4.92,19.7,8.33,35.69,28.47,42.24,39.76l.3-5.21c-4.85-11.68-24-32-42.17-38.52-29.14-10.45-48.76,5.15-48.76,5.15Z"/><path class="cls-18" d="M256.75,380.69c-7,13.25-14.73,43.34-16.66,49.85a18,18,0,0,1,3.53-1.19c4.83-11.23,15.47-46.08,16.77-49.19"/><path class="cls-18" d="M289.87,363.8s-18.76,46.48-24.57,64.09l4.64.62c6-12.93,19.93-56.16,25.17-66.53"/><path class="cls-18" d="M323.35,346.62c4.45,9.79,6.31,23.94,4.87,29.91-4.68,19.34-35.07,64.15-35.07,64.15l4.75,4.45s30.32-50.18,34.21-65.91c3.21-12.94-4.15-32.6-4.15-32.6"/><path class="cls-16" d="M202.7,284.94c-70.78,9.56-75.26,11.88-115,27L76.3,294.05c10.64-11.6,63.7-61.37,132.17-67C208.47,227,245.37,279.18,202.7,284.94Z"/><path class="cls-15" d="M75,287.17s-5.44-19.58-11.92-20.08c-6.16-.46,2,18.8,2,18.8"/><path class="cls-16" d="M62.94,268.23c-3.55,1.07.57,14.29,2.52,16.25s3.14-1,3.14-1C64.7,276.77,62.68,270.05,62.94,268.23Z"/><path class="cls-16" d="M83.48,293.69c-10.8-10.17-34.1-31.81-51-24.81-10.11-3.2-14.76-.91-13.85,2.28,1.34,4.77,27.41,8.28,34.42,16.94-6.31-6-23.38-12.07-31.34-11.83-6.35.19-6.47,7.13-.79,8.89,11.62,3.59,26.74,10.5,30.09,15.55,8.24,12.43-2.47,15.75-9.68,21.46-9.19,7.27-1.55,9.51,12.47,6.68,12.18-2.45,24.92-10,33.86-17.7"/><path class="cls-15" d="M294.91,272.25c27.19-11.85,89.46,1.24,118.56,9.74,0,0,18.51,6.44,20.26-15.14,0,0-54.14-68.17-138-48.55C274.26,223.33,252.78,276.57,294.91,272.25Z"/><path class="cls-16" d="M429.06,265.54c-3.58-11.06-41.91-37.07-50.61-37.72-8.18,2.47-10.52,23.85-8.7,28.34,7.85,6.72,39.32,13.93,39.32,13.93"/><path class="cls-15" d="M145.47,244.66c-4.31,4.3-2.26,22.4-2.26,28.46s-36,11.28-59,31.66c-7.64,6.76-26.15,20.79-44.72,23.83,15.24,3.92,43.57-12.11,48.14-16.68,21.14-7.63,58.07-21.46,81.77-21.46C174,274.86,145.47,244.66,145.47,244.66Z"/><path class="cls-5" d="M158.74,243.84c-7.16-14.48-38-4.7-35.95,13.07.37,3.28,6.53-6.2,15.44-8.85C151.45,244.13,160.49,247.38,158.74,243.84Z"/><path class="cls-3" d="M161.19,239.42c-14.27,2.1-39,11.93-41.85,18.2-4.44,9.83,6.55,37.76,19.14,41.64,8.69,2.68,21.25-4.15,43.52-12.34"/><path class="cls-4" d="M121,257.06c-3.08,5.48.79,24.34,9.26,31.21,3,1.44,10-.37,9.74-2.28s-9.74-9.69-9.74-18.22c1.07-3.76,6.83-5.19,6.83-5.19.08,4.42,4.8,17,10.18,20.91,3.49,2.5,9.94-.61,8.15-2.92-6.83-6.82-12.83-26.74-10.61-34.76C140.83,244.38,124.82,250.22,121,257.06Z"/><path class="cls-3" d="M204.62,220.48c-21.52,6.55-39.15,13.39-48.06,13.29-6.72-.08-12.21,6.33-7.62,23.65,3.8,14.27,16.72,36.17,21.72,39.24a8.43,8.43,0,0,0,11.84-3.93c5.27-3.19,11.92-2.62,14.56-5.84"/><path class="cls-15" d="M256.18,166.94c-18.73,17-7.94,43.06-3.77,46.46,4,4.14,21.82-3.42,21.82-3.42s11.28,40.2-20.35,54.4-56.81-9.1-56.47-37.93A110.11,110.11,0,0,0,215,219.52c5.27-11.56-10.84-24.17-10.84-24.17"/><path class="cls-20" d="M212.25,208.71S223.68,218.78,229,219c5.85.2,12.25-9.16,12.25-9.16l6.51,5.35,2.23-3.93c-3.63-5.11-5.23-15.88-5.23-15.88"/><path class="cls-3" d="M204.62,220.48s1.55,18.59,24.86,15.16S258.73,213,258.76,210s-8.82-4.39-9.91-2.29-7.35,15.47-20,18.17S215,219.52,215,219.52C215.09,215.35,205.45,217.17,204.62,220.48Z"/><path class="cls-15" d="M427.29,287.74c14.8,5.6,20.16,2.84,30.44-2.15s18.75-6.09,16.79-13.26c-1.46-5.31-15,2-22.28,2.79,0,0,21.27-17.4,12.47-21.89-6.19-3.15-15,6.94-19.35,12.3a17,17,0,0,0-3.8-1s9.39-23.35,1.79-25.75c-7-2.21-10.56,12.16-13.5,22.88l-3.32-.36s1.43-22.17-6.37-21.36-6.14,15.47-11.63,27.44c0,0-8.69-10.39-17.43-9.49s-10.31,6.37-4.44,9.29C394.41,271,398.93,288.7,427.29,287.74Z"/><path class="cls-16" d="M450.91,281.74c.18-7.41-20.25-17.84-37.83-13.45-7.05,1.76-10.15,4.41-7.26,10.54s17.13,9,22,4.39C432.79,288.48,450.74,288.62,450.91,281.74Z"/><path class="cls-3" d="M300.21,271.81c10.36,5.23,21.66,8.4,28.51,7.94,6.56-.45,11.13-8.18,12.75-14.88,0,0-10.75-1.61-17.19-1.46-6,.14-16.52-39.92,1.76-52.13,0,0,6.25,1.23,12.92,2.36-1-14.58-9.95-17.42-17.9-11.28-6,4.62-21.18,1.87-39.36,2.75a94.13,94.13,0,0,0-30.16,5.95c-5.89,23.77-42,31.86-37.09,8.86-21.39.64-25.9,7.52-30.15,19.9-6.68,19.48,15.77,89.64,22.77,107.36,3.33,8.42-16.22,15.37-13.59,22.7,8.58,23.93,52.24,32.11,90.23,2.69,27.36-21.2,38.33-27.18,52.47-19.72,8.74-.26,11.6-17.76-9.35-34-12-9.36-17.9-44-17.9-44"/><path class="cls-21" d="M156.56,234.93s.18-.07,6.88-.07,26.78-12.36,36.39-11.49c-3.51,7.19-24.73,22.7-16.75,54.47,0,0-4.62,3-7.15,3.16,0,0-6.1-9.57-7-12.35,1.32,8.09,6.47,17.34,7,19.72.6,2.87-8.2,6.57-17-11.19S144.39,235.23,156.56,234.93Z"/><path class="cls-22" d="M303.48,324.54C284.34,333.23,261.8,357.65,247,365s-25.38-.5-34.19-15.26c-7.19-12-32.76-82.28-25.49-121,6.65-4.83,14.81-4.31,14.81-4.31,5.73,22.52,44.22,21.27,58.22-13.43,7.1-2.42,25.68-3.81,25.92,0s-3.24,53.9-5.83,66.11-14.23,34.73-13,36.92,13.91-16.59,17.16-15S295.11,310,303.48,324.54Z"/><path class="cls-13" d="M205.62,360.08c5-2.33,9.58,8.3,24.34,8.3s27.33-8.3,37.62-18.6,34.56-24,46.16-15.7c-13.58,3.33-35,28.84-53.81,41.41C236.12,391.44,198.46,380.92,205.62,360.08Z"/><path class="cls-13" d="M303.34,256c1-1.9-5.58-6.27-4.08-24.27s10.33-23.56,2-24.19c-7.27-.56-24.38-.68-27.76,2.32s9.82,16.2,12.14,23.72C290.29,248.5,301.77,259,303.34,256Z"/><path class="cls-21" d="M337.67,213.42c0-4.41-5.18-8.65-8.86-7.87s-16.66,7.1-16.66,32,12.89,35.43,18.52,35.43c2.62,0,6.63-8.05,6.63-8.05l-13-.58c-13.75-13.74-10.44-50.09,1.76-53A50.83,50.83,0,0,1,337.67,213.42Z"/><path class="cls-23" d="M305.3,328.56c9.72-4.85,14-6.79,14-10.29s-6.12-6.22-17.67-25c-9.67-15.76-14.42-30.08-14.86-38.85,5.43,7.56,33.14,23.87,42,23.87-5,1.52-20.66-3.57-20.66-3.57,1.86,10.54,7.2,33.81,17.53,44.14,8.92,8.59,17.75,18.19,15.83,28.65-1.74,2.87-2.52,4.26-5.24,4.26-8.54-5.65-21.23-4.7-47.09,15.73s-47,28.23-75.72,19.68c27.46,7.58,53-2.54,71.47-21,19.25-19.25,25.51-25.71,39.11-24.74,8.74,0,3.74-11.1-2.91-12.43A52.81,52.81,0,0,0,305.3,328.56Z"/><path class="cls-21" d="M286.34,242.57c0,8-.79,17.69,6.11,32.21s11.54-2.88,10.82-2.93C294,265.44,286.34,246.22,286.34,242.57Z"/><path class="cls-16" d="M384.69,262.79c2.89-3.89,13.77-2.66,19.13,5.93-2.68-.07-5.91,5.2-5.91,5.2C395.78,269.06,381.48,267.1,384.69,262.79Z"/><path class="cls-16" d="M422,243.89c-4.92-.12-5.61,19.56-5.61,19.56l8.59-1.29S427.33,244,422,243.89Z"/><path class="cls-16" d="M443.51,243.56c-4.92-.12-9.42,19.41-9.42,19.41l7.2,1.3S448.86,243.69,443.51,243.56Z"/><path class="cls-16" d="M448.59,268.09s12.39-14.21,16-10.42c2.92,3.07-11.27,14.7-11.27,14.7Z"/><path class="cls-16" d="M459.08,278.87c4.71-1.95,12.15-5.75,12.58-2.06.32,2.67-10.86,6.4-10.86,6.4Z"/><path class="cls-15" d="M63.82,319.34c3.57-5.08,2.44-17.44-11.55-27.2s-34-11.89-32.89-13.68,10.4-4.22,23.5,1.69c-5.14-4.59-25.45-9.65-21-11.37,3.45-1.31,10.64.66,10.64.66,5.21-4.72,25-1,49.57,23,3.49,3.49,6.1,7.13,12.52,5.14s-3.17,7.29-10.16,10.7S63.82,319.34,63.82,319.34Z"/><path class="cls-20" d="M32.07,269.26c13.43,2.37,27.34,12.5,27.34,12.5-3-5-13.56-13-22.85-14A19,19,0,0,1,32.07,269.26Z"/><path class="cls-20" d="M26.59,275c9,2.48,23.44,8.47,29.48,12.12C49.12,278.19,32.72,274.34,26.59,275Z"/><path class="cls-15" d="M109.84,265.56c-12.41,9.3-28,22.75-31.44,26.21,0,7.59,8.9,9.45,14.83,6.92-5,.44-8.86-4.71-7.23-8.8C88,284.91,101.86,271.92,109.84,265.56Z"/><path class="cls-5" d="M368.3,221.34c3-15.88-27.57-26.53-36.61-11.09-1.67,2.85,8.95-1.06,17.66,2.17C362.29,217.2,367.58,225.22,368.3,221.34Z"/><path class="cls-3" d="M326,211.28c11.08-5.82,46.43,7.14,42.1,12.39-10.83,3.68-14.73,40.39-9,46.08.53,7.4-19,1.86-34.55-3.65C309.3,251.14,313.23,218.34,326,211.28Z"/><path class="cls-15" d="M118.74,456.06C114.31,478.93,187.33,558,190,573.22s31.82,6.85,26-11.81c-7.44-23.91-10.49-75.73-30.55-85.08"/><path class="cls-15" d="M232.32,471.24c-9.42,21.31,38.08,113.27,37.27,128.69s37,13.63,34.24-5.73c-4.11-29.34.05-90.84-18.1-106.63"/><path class="cls-3" d="M292.79,97.88s52.51,36.56,48,63c-2.59,15.14-25-2.36-85,22.27-68.45-39.55-25.2-104.95-25.2-104.95"/><path class="cls-4" d="M299.37,105.58c26,15,42.27,41.84,39.85,53.22C337.14,149.05,310.81,113.06,299.37,105.58Z"/><path class="cls-24" d="M292.78,109.83c23.91,13.57,42.75,41.66,42,51s-40.07,1-72.33,18.5,8.07-60.68,10.54-61.43"/><path class="cls-25" d="M300.11,117.91C330,137.44,318.86,164.68,273,167.69s-2.13-37.87-2.13-37.87"/><path class="cls-16" d="M142.37,133.28c-3.71.65-14.07-9-21.19-.36-4.37,5.31,5.48,28.13,20.79,26.75,6.39-.57,7.56-10.21,7.51-10.46"/><path class="cls-15" d="M140.23,146c-3.09-9-12.43-10.38-16.37-10.38,6.63,4.47,13.41,19.15,13.41,22.11"/><path class="cls-15" d="M137.85,81.42c-14.33,28.81-4.15,64.06-3.55,72.5,3.2,44.69,46.3,64.52,74,60.8,50.35-6.77,88.81-60.09,80.95-104.34C271.8,12,160,28.87,137.85,81.42Z"/><path class="cls-15" d="M279.25,131.39c4.86-4.86,21.23-22.79,32.17-13.7,8.38,7-1.88,34.94-17.71,39.07-8.14,2.12-13.74-8.28-13.79-8.58"/><path class="cls-16" d="M255.45,105.49c9,24.52,7.47,91.6-57.65,103.07-26.29,4.63-64.45-24.68-62.14-61.45.39-6.31-4.84-14.64-.85-35.54,4.74-2.19,10.47-9,10.47-9,1.08,16.77,5.35,16.53,9.39,16.31s16.39-16.53,18.49-26.26c7.8,14.78,20.3,15.58,25.77,13.71s5.69-10.92,3.45-19.52C221.22,85.35,252.31,96.91,255.45,105.49Z"/><path class="cls-26" d="M181.81,148.13c3.24-1.38,6.17,3.13,3.67,4.3S177.36,150,181.81,148.13Z"/><path class="cls-15" d="M224.61,161c5.07,2,.66,6-5.71,6.54C221,165.42,218.79,158.72,224.61,161Z"/><path class="cls-15" d="M160.36,176c-2.18,5,1.62,5.2,7.22,2.12C164.67,177.55,162.34,171.48,160.36,176Z"/><path class="cls-27" d="M167.79,143.61c2.13-4.89-6.62-31.89-22.85-28.42-15.11,3.22-12.75,24-9,30.06C143.16,157,163.63,153.2,167.79,143.61Z"/><path class="cls-28" d="M167.81,144.16c2-4.6-6.16-29.55-21.47-26.59-13.4,2.59-11.72,22.53-8.14,28.2C145.28,157,163.9,153.17,167.81,144.16Z"/><path class="cls-11" d="M167.81,144.16c1.89-4.35-4.82-28.82-17.68-26-14.41,3.13-14,23.8-9.44,29.6C147,155.75,164.12,152.68,167.81,144.16Z"/><path class="cls-29" d="M152.9,120c-16,0-14.15,28.09-5.71,31.78,5.8,1.63,16,0,18.62-5.17C168.52,141.31,163.93,120,152.9,120Z"/><path class="cls-27" d="M147.43,88.93c3-.62,11.61,7.36,8.73,7.34-14-.12-17.43,5.59-18.36,4.27C135.88,97.84,143.6,89.73,147.43,88.93Z"/><path class="cls-27" d="M222.52,79.43C218.62,79,210.69,85,211,87.21s12-3.59,30.39,5.55C240.34,86.47,226.56,79.88,222.52,79.43Z"/><path class="cls-30" d="M153.82,125.66c-15.06,1.53-11.69,29.2,2.22,25.84S163.56,124.67,153.82,125.66Z"/><path class="cls-11" d="M138.53,137.33c1.6-3.55,10-.25,9.57,2.92S136.11,142.7,138.53,137.33Z"/><path class="cls-27" d="M205.53,140c-4.06-4.12-4.3-34.13,16.88-37.78,18.85-3.25,27.61,22.32,23.94,29.57C239.69,144.89,213.47,148,205.53,140Z"/><path class="cls-28" d="M205.32,139.93c-3.67-3.74-3.88-30.65,15.28-34s25,20,21.67,26.59C236.24,144.38,212.51,147.24,205.32,139.93Z"/><path class="cls-11" d="M209,140.25c-5-4.2-5.17-29.43,12.52-32.54s21.91,19.16,18.84,25.22C234.78,143.9,216.26,146.3,209,140.25Z"/><path class="cls-29" d="M223.53,109.9c-14.31,1.41-17.49,29.63-7,33.75,8.89,1.38,21.4-3.37,23.29-7.53S239.06,108.37,223.53,109.9Z"/><path class="cls-30" d="M226.38,116.08c-12.42-.66-15.13,28.79.58,27.44S239.17,116.75,226.38,116.08Z"/><path class="cls-11" d="M208.48,129.81c1.7-3.76,10.63-.25,10.17,3.12S205.9,135.53,208.48,129.81Z"/><path class="cls-11" d="M231.58,129.78c-3.19-.35-2.5,5.15,0,5.43S234.77,130.13,231.58,129.78Z"/><path class="cls-11" d="M159.19,139c-3.19-.34-2.5,5.15,0,5.44S162.38,139.33,159.19,139Z"/><path class="cls-3" d="M245.42,81.52c20.2,9.85,24.63,43.37,21.23,63.8,5.85,1,8.68-1.82,8.68-1.82A39.7,39.7,0,0,1,295,118c6.18-9.52.35-21.19-7.63-31.93"/><path class="cls-31" d="M252.72,86.69c12.51,11.7,14,41.19,9.44,53.31,7.91-6.32,12.5-21.83,11.77-28.76,2.12,9.44.19,15.57.19,15.57,7.13-6.13,11-17.36,11-17.36C271.48,93.36,252.72,86.69,252.72,86.69Z"/><path class="cls-32" d="M222.82,163.19c3.89,1.05-1.39,5.56-16.71,9.06,7.67-2.31,13.34-4.64,14.89-6.83C222.25,163.64,221.82,162.92,222.82,163.19Z"/><path class="cls-32" d="M172.5,177.86c-3.22.74-6.65.38-8-1-.86-.86-1.68-1.24-2-.33-.8,2.18,2.24,2.79,10,1.84"/><path class="cls-3" d="M151.69,82.4c-26.57,3.56-40.41,29.24-35.06,34.1s35.06-30.6,46.56-39.94c-27.77,20.67-15.29,34-10.47,35s21.11-36.95,21.11-36.95,13,27.45,23.21,26.85,1.67-23.45-3.36-28.8c29.21-1.87,29.46-42.11-7.09-40.27S118.47,69.88,144,77.11"/><path class="cls-31" d="M182.09,78.7c4.14,13,13.34,22,18.19,19.74,3.11-6.57-2-18-9.08-22.6"/><path class="cls-3" d="M154.51,88.75c-14.63,10.83-15.58,22.47-13.68,24.78-7-4.68-9.87-16.62,11-28.42"/><path class="cls-3" d="M176.66,76.81c-9.51,5.84-5.78,25.15-1.49,31.37-8.38-5.72-14.27-20.24-.95-32.34"/><path class="cls-33" d="M185,178.55l29-8.43s-15.37,11.63-24.35,13.3-14.8-1.39-21.21-4.69C172.47,179.26,181.18,178.94,185,178.55Z"/><path class="cls-34" d="M184.2,174.78c3.94.66,4.26-2.17,10.51-2.77s18.51-.94,25.1-5.11c-23.06,11.83-43.39,14.09-52.47,11.46C174.12,178.06,177,173.59,184.2,174.78Z"/><path class="cls-35" d="M179.14,154.08c-2.82,1.34-2.73,2.8-5.71,4.43-4,2.17-.49,4.43,4.06,4.05a77.35,77.35,0,0,0,13.73-2c4.41-1.19,2.35-4.35-1.3-4.75C187.2,155.49,182.47,152.49,179.14,154.08Z"/><path class="cls-36" d="M177.55,159c-.91-.8-5.68.89-5,1.8C173.83,162.38,179.39,160.62,177.55,159Z"/><path class="cls-35" d="M192.78,149.5c4.95,2.14,6.65,9-.8,10.74-2.29.78-.19-2-.19-2C195.25,156.36,195,154.14,192.78,149.5Z"/><path class="cls-36" d="M186.78,157.7c.8-1.17,6.38-.57,5.86.59C191.84,160.12,185.4,159.72,186.78,157.7Z"/><path class="cls-20" d="M287.32,137c8.39-11.74,19.24-15.49,24.1-11.07-6.62,2.33-17.68,10.74-17.68,14.32,4.3,4.3-1.51,8.86-4.55,8.86C296.35,141.89,287.32,137,287.32,137Z"/><path class="cls-16" d="M281.84,131.12c4.48-8.41,17.87-19.52,27.46-14.86,3.19,2.41,2.44,4.3,2.44,4.3C308.78,117.6,292.15,121,281.84,131.12Z"/><path class="cls-31" d="M132.05,92.76c-13.05,5.71-18,19.35-13,22.4,10.13-14.89,20.7-23.91,26.07-26.41-9.44,6.59-8.82,16.94-5.36,19.43-1.92-7.64,6.39-17.77,11.46-21.49-5.83,10.94-3.25,18.82.7,20.72,2.47-6.62,16.54-30.27,16.54-30.27-9,2.75-15.43,17.68-15.43,17.68a88.6,88.6,0,0,1,3.58-14.89C150.19,82.86,132.05,92.76,132.05,92.76Z"/><path class="cls-3" d="M235.22,446.72c23.09-7.3,55.46,11.88,68.12,30.1.71,4.19-3.71,10.28-5.79,11.78,2,2.37,1.39,6.87-.05,7.79,0,1.11,2.74,5.93,2.22,11.64s-33.1,28-62.55,10.55c-6.06-3.62-13.37-25.77-12.88-41.28S229.45,449.5,235.22,446.72Z"/><path class="cls-4" d="M227.64,457.44c-4,2.14,5.33-10.95,12.45-11.86,29.48-2.69,44.38,12.38,50.79,22.26,2.08,4.85.46,9.84-1,9.86s-9.41-1.2-9.41-1.2,10,6.87,9.24,10.28-9.24,5.14-9.24,5.14,5.87,2.95,7.7,5.37,1.43,12.6-1.76,16.07S258.48,533,235.09,516.7c-2.49-3.78-3.44-5.64-3.44-5.64,7.29,6.49,40.53,8.93,43.81-14.81S246.42,447.3,227.64,457.44Z"/><path class="cls-3" d="M139.54,420.84c20.79,5.85,55.72,44.87,56.69,47.83s-3.26,5.68-3.26,5.68,2.62,3.34,1.9,6.83-39.48,23.74-61.05,17.76c-8.83-4.41-21.83-32.49-19.23-47.56S133.56,420.46,139.54,420.84Z"/><path class="cls-4" d="M139.1,420.85c14.73,5.23,41.93,32.78,39.68,43.7-4-1.74-14.38-7.11-14.38-7.11,5.37,6.41,12.13,10.92,11.44,12.65s-17.5,7.32-17.5,7.32,13-1.77,15.59.3,2.95,8.49.87,10.92-34.83,16.11-43.49,7.62c15.77-4,21.31-20.61,16.63-44.18S136,423.14,136,423.14Z"/><path class="cls-5" d="M227.21,454.15c-11.79,9.47-10.72,34.4-.36,46.92s36.52,12,44.55,2.34,8.8-30.77,3.48-39.62C265.87,448.8,241.21,442.91,227.21,454.15Z"/><path class="cls-5" d="M132.11,424.34c10.74.4,19.21,25,17.22,42.28s-15.8,24.8-24,25.31-17-21.74-13.89-39.33S124.93,424.08,132.11,424.34Z"/><path class="cls-37" d="M229.06,454.55c-10.23,8.57-11.55,26.45-5,38.23s27.82,12.85,37,4.7,12.88-28.74,6.5-38C260.84,449.79,240.89,444.64,229.06,454.55Z"/><path class="cls-37" d="M126.79,425.89c6.16-4.15,16.3,10.76,15.09,29.47s-20.9,34.17-26.3,27.05S104.11,441.16,126.79,425.89Z"/><path class="cls-37" d="M342.78,202.73c-5.36.67,0,4.36,10.07,8.52s15,2.48,12.65,0S356.73,201,342.78,202.73Z"/><path class="cls-37" d="M140.83,237.34c4.7-.65,5.27,2.11-3,7.26s-15,8.77-13.9,4.76S132.2,238.51,140.83,237.34Z"/><path class="cls-15" d="M268.42,598.82c-3.86,14.86-36.94,58.32,2.79,64.07,34.7,5,39.59-41.63,34.85-66.48"/><path class="cls-15" d="M190.61,575.6c-1.69,17.81-45.07,28.47-42.35,39.32s74.41-11.47,75.09-19.56a55.32,55.32,0,0,0-6.59-30.5"/><path class="cls-3" d="M267.48,595.18c-3.2-10-7.87-23-11-26.59s-1.64-6.57.87-6.28c11.34,9.14,34,3.89,43.57-8.3,3.64-.76,5.37,3.4,4.12,8.08s1,26.25,0,32S274.83,610.34,267.48,595.18Z"/><path class="cls-4" d="M267,571.71c-4,1.73-5.94,0-5.94,0,2.39,6.41,7.12,21.75,10.3,24.69s23.45.69,24.4-4.16S294.65,570,294.65,570c-6.2,4.25-16.55,1.13-16.55,1.13"/><path class="cls-3" d="M185.83,573.53c.4-5.38-8.43-18.37-11.73-21.31s-5.9-5.41-2.86-8.51c6.5,5,32.49-2.34,38.38-8.52,3.64-2.38,4.51,2.64,4,6.28s5.71,21,6.23,26.17S188.2,581.27,185.83,573.53Z"/><path class="cls-4" d="M207.17,545.59c-6.17,4-23.32,8-29.69,6.88,6.37,6.63,11.05,21.26,11.05,21.26l17,.57C209.45,565.34,207.17,545.59,207.17,545.59Z"/><path class="cls-38" d="M231.79,600c4.73,5.3,5.53,16.18,4.52,18.84-2.29,6-20.83,11-26.83,11s-14.84,6.13-36.7,13.35c-13.17,4.35-28.84,3.57-30.94,1.89s-8.52-10.19-5.36-11.88"/><path class="cls-38" d="M314,617.32c2.51,3.75,5.65,17,3.14,25.53s-5.66,43.33-44.62,42.6c-24.83-2.09-28-14-26.09-23.54"/><path class="cls-39" d="M308.76,587.14c6-1.42,8,9.84,4.57,12.55,2.93,8.37,3.41,17.87-1.86,42.21s-19.54,33.92-46.76,30-24.16-26.84-15.24-43.53c9.71-18.15,11.85-27.32,11.85-27.32-5.43-4.94-1.76-14.59,1.58-14.59,4.21,0,.92,10,18.16,10.18S302.94,589.8,308.76,587.14Z"/><path class="cls-40" d="M307.61,589c2.27-1.52,3.36,5.75,1.29,8.63s-12.72,6.78-12.72,6.78a61.14,61.14,0,0,0,7.1-.17c3.13-.33.76,17.51-2.8,30.55s-11.62,32.75-36.77,31-20.65-23-15.87-34.07,14.36-26.95,13.48-30.6-3.2-8,1.58-11c1.41,4.12,6.31,2.23,7.34,7.51s-4.3,16.17-10.16,27.65-7.43,23.57,4.37,24.71,17.72-7.41,19.16-19.83-.91-30,6.53-32.53A77.69,77.69,0,0,0,307.61,589Z"/><path class="cls-41" d="M253.57,653.67c4.12-7.4,23.69-2.44,23.29,1.52C275.88,664.72,249.35,661.25,253.57,653.67Z"/><path class="cls-39" d="M250.57,662.92c10.24-6.29,24.63-3.77,32.38,2.92,3.17,2.74-28.62,3.36-28.62,3.36"/><path class="cls-38" d="M249.13,667c12.66-7.23,28.69-4.14,38.43,4.21s-10.28,7.28-22.85,5.22"/><path class="cls-39" d="M220.28,563.08c6.88-2,7.47,4.63,6.25,8.72,4.73,7.89,8.83,19.25,7.25,29.35s-16.09,7.89-29.34,15.78-37.56,21.77-67.54,18.62c-8.84-6.63-9-25.18,5.25-31.21s32.94-14.18,36.24-25.54c-1-6.33.21-10.26,3.72-9.78C187.54,573.25,215.61,568.25,220.28,563.08Z"/><path class="cls-40" d="M220.5,564.17c2.48-1,3.3,5.94.69,7.79s-15.07,3.94-15.07,3.94a15.06,15.06,0,0,0,9.46,0c4.78,5.74,6.14,18.62,3.88,22.5s-13.18,2.48-23.75,10.55-30.79,21.56-52.8,20.45c-7.29-6.18-11.31-6.75-11.31-6.75-2.75-7.89,4-21.1,18.87-21.92-1.47,1.54-.27,7.41,11.22,5,14.18-2.92,25.45-10.51,28.95-18.12s3.41-15.47,8.09-17.81S214.31,566.64,220.5,564.17Z"/><path class="cls-41" d="M135,608.29c7.87-7.27,29.1,2.34,17.43,10.87S126.92,615.78,135,608.29Z"/><path class="cls-38" d="M130.78,625.43c4.84-3.32,11,8.93,21.69,10.57-3.58,5.23-10.63,9.11-10.63,9.11C131,638,128.2,627.19,130.78,625.43Z"/><path class="cls-42" d="M184,569.92c2.12,3.1-7.08,15.36-15.74,21.42S146,601.29,150,604.8c5.42,4.67,19.64,2,32.39-6.64,12.53-8.48,12.38-25.83,17.89-28.24l5.1-1.09C205.46,563.85,183.84,563.18,184,569.92Z"/><path class="cls-42" d="M268.58,593.1c2.79-7.52,26.41-5.84,27.4,1.28-2.66.87-5.83,1.58-5.83,1.58-5.31,2.7-4.75,10.47-5.69,23.94s-4.36,29.39-17.26,30-10.81-13.81-4-26.63S275,597.33,268.58,593.1Z"/><path class="cls-43" d="M255.29,639.27c3.24,0,3.58,4.42-.34,4.92S251.36,639.3,255.29,639.27Z"/><path class="cls-43" d="M258.11,625.24c3.24,0,3.56,4.42-.35,4.93S254.16,625.27,258.11,625.24Z"/><path class="cls-43" d="M263.2,611.81c3.24,0,3.57,4.42-.34,4.92S259.26,611.84,263.2,611.81Z"/><path class="cls-43" d="M291,599.23c3.26-.18,3.83,4.22-.07,4.9S287,599.45,291,599.23Z"/><path class="cls-43" d="M279.84,645c3.25-.18,3.82,4.22-.08,4.91S275.89,645.19,279.84,645Z"/><path class="cls-43" d="M285,629.79c3.25-.18,3.83,4.22-.07,4.9S281,630,285,629.79Z"/><path class="cls-43" d="M288.15,616.55c3.25-.18,3.83,4.22-.07,4.91S284.2,616.76,288.15,616.55Z"/><path class="cls-44" d="M289.07,600.85c-4.73,6.25-21.65,13.19-25.4,14.18-2.07,1.78.72,2.66.72,2.66,5.88-.54,19.5-5.44,27-14.39C292.81,600.77,290.32,599.46,289.07,600.85Z"/><path class="cls-44" d="M270.25,600.43c1.78,7,15.19,16.23,18.4,17.74,1.22,2.08-1.91,2.62-1.91,2.62-5.52-1.31-16.61-8.06-19.85-18.17C266.62,599.87,269.67,598.85,270.25,600.43Z"/><path class="cls-44" d="M285,617.7c-5.74,5.37-23.8,9.34-27.71,9.67-2.36,1.4.28,2.77.28,2.77,6,.48,20.39-2,29.33-9.62C288.79,618.26,286.52,616.53,285,617.7Z"/><path class="cls-44" d="M265.24,613.41c1.86,7,15,17,18.08,18.64,1.21,2.11-1.79,2.44-1.79,2.44-5.33-1.67-16.14-9-19.48-19.17C261.73,612.6,264.64,611.82,265.24,613.41Z"/><path class="cls-44" d="M282.6,631c-5.59,5.36-23.75,9.51-27.71,9.9-2.34,1.42.41,2.72.41,2.72,6.1.37,20.63-2.31,29.36-9.88C286.44,631.5,284,629.83,282.6,631Z"/><path class="cls-44" d="M259.66,627.37c2.64,7,17.25,16.92,20.67,18.59,1.49,2.11-1.61,2.47-1.61,2.47-5.71-1.62-17.69-8.93-22.18-19.09C256,626.6,258.88,625.76,259.66,627.37Z"/><path class="cls-44" d="M277.87,595.08c3.63-4.76,17-11.93,22.23-4.5s2.18,16.57-4.44,17.19-15.93-9.73-17.18-10.7c-.61-2,.49-2.29,2.95-1.77s11.68,10.4,14.75,9.07c4.11-1.8,2.11-10.82-1.16-12.86s-13.67,3.11-14.64,4.74"/><path class="cls-44" d="M276.76,595.35c-3.52-.14-25,10.7-33.08,21.59-.31,1.83,2.08,4.94,3.16,3s20.19-19.66,31.64-22.84"/><path class="cls-44" d="M279.67,594c-2.28-6.52-17.88-10.63-23.59-1.89s-.67,13.83,5.15,9.23,13.85-3.31,16.48-4.44.63-2.19-3.34-3.09c-6.49-1.48-15.46,6.26-17.18,5.52s1.79-8,8.14-9.09c4.58-.75,10,2.08,11.24,5.65"/><path class="cls-44" d="M280,596.76c-.2,3.19,4.28,13.46,21.83,16.83,2.45.4,1.83,4-1.43,3.84s-25.39-8.81-23.22-20.38C277.87,595.08,280,596.76,280,596.76Z"/><path class="cls-44" d="M277.54,592.27c2.61-.7,8.85,3.82,3.61,5.5S272.85,593.52,277.54,592.27Z"/><path class="cls-44" d="M189.41,570.93c4.23-4,18.09-8.66,21.93-.72s-.58,16.16-7,15.68-13.64-11.84-14.68-13c-.26-2,.83-2.1,3.11-1.21s9.47,11.79,12.61,11c4.22-1.05,3.75-10,1-12.45s-13.55.77-14.73,2.17"/><path class="cls-44" d="M188.31,571c-3.34-.7-16.51,1.93-25.94,11-.6,1.69,1.19,5.05,2.54,3.34s13.32-11.26,24.76-12.46"/><path class="cls-44" d="M191.3,570.16c-1.13-6.59-15.35-13-22.21-5.59s-2.85,13.1,3.44,9.64,13.75-.94,16.44-1.6.95-2-2.69-3.48c-6-2.45-15.76,3.5-17.28,2.51s3-7.39,9.23-7.37c4.48,0,9.19,3.59,9.82,7.21"/><path class="cls-44" d="M191.13,572.87c-.7,3,1.93,13.53,18.14,19.56,2.27.77,1.1,4.1-2,3.44s-22.82-12.48-18.89-23.17C189.41,570.93,191.13,572.87,191.13,572.87Z"/><path class="cls-44" d="M189.54,568.2c2.61-.25,7.83,5.06,2.57,5.82S184.87,568.64,189.54,568.2Z"/><path class="cls-43" d="M201.11,574.56c3.15-.18,3.7,4.08-.07,4.74S197.29,574.77,201.11,574.56Z"/><path class="cls-43" d="M195.29,589.32c3.14-.18,3.7,4.08-.07,4.74S191.47,589.53,195.29,589.32Z"/><path class="cls-43" d="M182.59,600.55c3.15-.18,3.7,4.08-.07,4.74S178.77,600.76,182.59,600.55Z"/><path class="cls-43" d="M166.11,607c3.15-.18,3.7,4.09-.06,4.74S162.29,607.25,166.11,607Z"/><path class="cls-44" d="M200.13,578.2c-6.88-.69-19.8,1.16-24.18,6.06-2-5.51,10.21-11.79,25.7-9.21C203.27,575.49,202.47,578.28,200.13,578.2Z"/><path class="cls-44" d="M192.8,593c-6.39-2.63-19.31-4.56-24.9-1.12-.31-5.84,13.15-8.38,27.26-1.47C196.59,591.25,195,593.7,192.8,593Z"/><path class="cls-44" d="M181.07,603.68c-5.63-4-20.78-7.51-27-5.43,1-5.76,17.72-6.49,29.89,3.45C185.14,602.88,183.06,604.91,181.07,603.68Z"/><path class="cls-44" d="M168.68,590.61c-7.17-3.46-6.62,12.78-5.06,18.37.93,2.71,4,2.11,4.09,0C166.37,602.38,167,593.23,168.68,590.61Z"/><path class="cls-44" d="M177.24,580.84c-7.94-.5-.89,17.9,2.67,22.5,1.88,2.15,4.47.45,3.79-1.55C180,596.18,176.67,583.91,177.24,580.84Z"/><path class="cls-44" d="M178.1,573.2c-7.16,3.47,9.92,16.65,15.28,18.9,2.7.95,4.12-1.81,2.54-3.21C189.91,585.84,179.11,576.15,178.1,573.2Z"/><path class="cls-21" d="M212.57,218.52c-1.22,8.15,5.63,10.61,14.25,9s16.93-9.55,20.92-15.78,8.49.29,6.41,6-15.42,17.38-29.46,19.45-19.42-8.21-18.58-12.49S210.68,217.13,212.57,218.52Z"/><path class="cls-13" d="M189,229.05c-9,2.21-21.83,4.93-24,7.4s0,21.93,3.23,25.65,12.28-15.38,20.82-18.76"/><path class="cls-13" d="M159,236.84c-.11-4.45-9-.68-8,12.48s8.19,29,16.25,26C161.24,267.38,159.09,242,159,236.84Z"/><path class="cls-13" d="M332.29,200.82c-12.49,5-23.05,16.57-22.87,36.2s5.67,23.35,5.09,25.56-12.11-7.57-11-29.85C304.81,205.46,322.93,193.37,332.29,200.82Z"/><path class="cls-24" d="M210.81,4.83c-75.38-1.29-91.15,77.36-84.57,89.91C173.6,65.06,275.46,80.7,299,113.62,305.28,72.27,286.2,6.13,210.81,4.83ZM200,66.59c-5.26.79-21.75-2.27-49.39,4.66-7.82,2-5.76-25.54,23-28.76C199.92,39.55,205.27,65.8,200,66.59Z"/><path class="cls-45" d="M217.05,5.91c39.33,3.07,56.68,43,56,72.27-13.51-8.14-54.4-12.64-68.61-13,.09-22.09-21.19-27-31.9-26S142.44,52.28,144,70.67c-7.81,1.1-16.47,7.51-16.47,7.51C132.05,39.22,159.73,1.43,217.05,5.91Z"/><path class="cls-3" d="M197.76,66.73C182.68,63.37,159,61.85,153,66.1c-2.85,2,.71,13.9,4.87,13.31,15.95-2.86,38.07-.42,38.07-.42,2.6,0,3-3.15,3-3.15"/><path class="cls-4" d="M153.75,65.77c-2.89,1.13-.38,12,3.09,11.42S156,64.89,153.75,65.77Z"/><path class="cls-45" d="M197,66.73c-14.1-3.88-37.53-3.8-39.88-1.83s-1.22,10.68,2,10.68,24.05-.64,38.71,1c17.79.26,53.39,4.24,78.73,16.74,1.17-3.87.91-9.46-4.55-12.84S235.74,66.75,197,66.73Z"/><path class="cls-45" d="M150.62,72.47c-9.55,2.08-22.19,7.79-24,10.13s-.17,9.1.83,8.84c6.84-5.33,23.67-10.4,27-11.18C148.76,78.57,150.62,72.47,150.62,72.47Z"/><path class="cls-46" d="M210.21,8c-39-5.17-81.07,31.23-67.05,48.62,19.42-28.37,62.39-23.13,64.38,5.2C242.45,63.37,252.82,13.64,210.21,8Z"/><path class="cls-4" d="M331.69,210.25c-6.75,2.65-18.62,16.65-11.18,37.23,1.88,2.91,8,4.1,9,2.37s-.6-18.85,5.29-25.78c3.64-2.43,11.87,1.21,11.87,1.21-5,3.81-8.83,20.17-5.11,28.28,2.34,2.91,11.95,3.74,11.82.81-1.86-9.51,5.47-30.73,13.85-33.89C365.38,215.23,340.13,206.93,331.69,210.25Z"/><path class="cls-4" d="M258.31,564c-2-1.19-1.56,3.12,1.38,5.19s8.76,6.07,23.18,2.86,19.88-10.74,16.84-15.59C295.3,561.31,275.63,574.22,258.31,564Z"/><path class="cls-4" d="M172.47,545.36c-2.54,1.5-2,5.69,8.2,5.95s29.54-5.2,27.79-13.65C198.81,543.77,183.17,548.13,172.47,545.36Z"/><path class="cls-47" d="M283.34,671.85c9.62.91,21.18-6.76,25.86-19.36,1.82,6.63-4.15,20.25-15.59,26.36s-36.29,7.81-43.84-6.24C248.82,658.61,280.35,662.62,283.34,671.85Z"/><path class="cls-47" d="M173.61,632.27c-13.89,5-24.28,6.89-30,2.66s-9.28-9.49-12.78-7.73,4.29,12.86,9.49,15.45S171.35,643,173.61,632.27Z"/><path class="cls-16" d="M142,502.29c4.8,11.12,26.9,37.49,30.22,40.57,9.17,3.32,20.57.28,22.67-2.11-1.88-12.79-5.35-39.3-12.25-46.58C175.49,501.45,153.63,504.51,142,502.29Z"/><path class="cls-16" d="M245.37,524.93C247.85,535.5,260,562.71,260,562.71c9.7,4.68,22.91,4.54,27.94-1.46,1.14-9.09-4.8-38.66-4.8-38.66C275.23,528.09,261.07,530.56,245.37,524.93Z"/><path class="cls-18" d="M216.76,264.69a16.75,16.75,0,0,0-20.38-5.58c-9,4-6.09,40.32,5.83,47.25s20.21-5,18.84-11-8.32-12.1-9.7-9.39-1.12,8.79-6.62,9.39-12.23-23.23-3.5-27.61,7,4.67,10.12,5.17S219.36,268.56,216.76,264.69Z"/><path class="cls-18" d="M226.62,265.12c-6.83-1.53-11.54,9-8.82,19.49,2,7.7,6.28,14.37,12.73,11.91C239.9,293,242.88,268.76,226.62,265.12Zm-1.19,20.21c-4.06-5-.47-13.54,4.06-13.34,4,.17,6.42,6.06,4.52,12.21C232.66,288.56,227.44,287.81,225.43,285.33Z"/><path class="cls-18" d="M240.81,301.51c9.43,5,17.7-3.74,18.43-17.94.62-12.17-10.65-22.46-17.74-19-6.61,3.21-5.29,9.82-4.71,16.46C237.71,291.33,234.75,298.28,240.81,301.51Zm1.9-8.14c-1.56-2.66-1.78-15.24.7-15.94,4.92-1.39,9.52,3.14,7.76,12C250.46,292.94,245.32,297.81,242.71,293.37Z"/><path class="cls-18" d="M251.11,255.8c-.28,3.52,6.75,6.73,9.3,22.33,1.67,10.26-2.06,16.34,0,18.47s13.25.39,16.46-3.79,3.47-16.6.81-17.51-2.38,5.27-3.64,7.89-7.13,6.14-8.13,3.26,2.61-25.31-1.07-29.74S251.27,253.8,251.11,255.8Z"/><path class="cls-18" d="M223.05,323.25c2.21-.92,11.43-1.17,12.31.91s2.42,7.16.17,9.37-10.35,3.39-11.92-.39S221.62,323.86,223.05,323.25Z"/><path class="cls-18" d="M240.51,322.62c-.57,1.79.25,8.94,2.2,10.41s12.3-2.1,12.82-5.24.51-9.22-2.77-9.23S241.22,320.34,240.51,322.62Z"/><path class="cls-18" d="M204.5,312.15C213,328,257.22,322.87,269.35,301c5.88.47,7.94-3.59,2.6-5.43s-6.85,2-6.29,4.79-9.07,14.14-31.24,17.38-28.47-4.7-27.59-7.09.54-9.49-5.78-4.21S202.17,313.64,204.5,312.15Z"/><path class="cls-46" d="M158.9,65.06c-2.84,1.3-1.3,6.63,1.3,8.06s22.87-1.69,22.87-4.68S163.45,63,158.9,65.06Z"/></g></g></svg>