<svg id="Layer_1" data-name="Layer 1" xmlns="http://www.w3.org/2000/svg" viewBox="0 0 440.49 340"><defs><style>.cls-1{fill:#2d2d2d;}</style></defs><title>Artboard 13ldpi</title><path class="cls-1" d="M172.94,170.31a12.4,12.4,0,0,1-12.19-14.49l7.93-46.23L135.09,76.84A12.38,12.38,0,0,1,142,55.72L188.38,49,209.14,6.9a12.39,12.39,0,0,1,22.21,0L252.11,49l46.42,6.75a12.38,12.38,0,0,1,6.87,21.12l-33.59,32.75,7.92,46.23a12.38,12.38,0,0,1-18,13.06l-41.52-21.83-41.52,21.83A12.42,12.42,0,0,1,172.94,170.31Zm47.3-36.43A12.4,12.4,0,0,1,226,135.3l40.6,21.35-7.76-45.21a12.4,12.4,0,0,1,3.57-11l32.84-32-45.39-6.6a12.39,12.39,0,0,1-9.32-6.77L220.24,14l-20.3,41.13a12.4,12.4,0,0,1-9.32,6.78l-45.4,6.6,32.85,32a12.37,12.37,0,0,1,3.56,11l-7.75,45.21,40.6-21.35A12.33,12.33,0,0,1,220.24,133.88Zm-.62-121.19Z"/><path class="cls-1" d="M41.61,340a12.41,12.41,0,0,1-12.2-14.49l7.93-46.24L3.75,246.53a12.39,12.39,0,0,1,6.86-21.13L57,218.66,77.8,176.59a12.39,12.39,0,0,1,22.21,0l20.76,42.07,46.42,6.74a12.39,12.39,0,0,1,6.87,21.13l-33.59,32.74,7.93,46.24a12.38,12.38,0,0,1-18,13.05L88.9,316.73,47.38,338.56A12.42,12.42,0,0,1,41.61,340ZM88.9,303.57A12.33,12.33,0,0,1,94.66,305l40.61,21.34-7.75-45.21a12.38,12.38,0,0,1,3.56-11l32.85-32-45.4-6.59a12.38,12.38,0,0,1-9.32-6.78L88.9,183.63,68.6,224.77a12.38,12.38,0,0,1-9.32,6.78l-45.4,6.59,32.85,32a12.38,12.38,0,0,1,3.56,11l-7.75,45.21L83.14,305A12.36,12.36,0,0,1,88.9,303.57Z"/><path class="cls-1" d="M304.28,340a12.41,12.41,0,0,1-12.19-14.49L300,279.27l-33.59-32.74a12.38,12.38,0,0,1,6.86-21.13l46.42-6.74,20.77-42.07a12.39,12.39,0,0,1,22.21,0h0l20.76,42.07,46.42,6.74a12.39,12.39,0,0,1,6.87,21.13l-33.6,32.74,7.93,46.24a12.38,12.38,0,0,1-18,13.05l-41.52-21.83-41.52,21.83A12.43,12.43,0,0,1,304.28,340Zm47.3-36.43a12.33,12.33,0,0,1,5.76,1.42L398,326.34l-7.76-45.22a12.43,12.43,0,0,1,3.56-11l32.85-32-45.39-6.59a12.38,12.38,0,0,1-9.33-6.78l-20.3-41.14-20.3,41.14a12.4,12.4,0,0,1-9.33,6.78l-45.39,6.59,32.85,32a12.38,12.38,0,0,1,3.56,11l-7.75,45.21L345.82,305A12.33,12.33,0,0,1,351.58,303.57Z"/></svg>