<svg id="Layer_1" data-name="Layer 1" xmlns="http://www.w3.org/2000/svg" viewBox="0 0 388.49 414.82"><defs><style>.cls-1{fill:#2d2d2d;}</style></defs><title>Artboard 14ldpi</title><path class="cls-1" d="M197.35,178.17a89.09,89.09,0,1,1,89-89.08A89.15,89.15,0,0,1,197.35,178.17Zm0-165.21a76.13,76.13,0,1,0,76.06,76.13A76.18,76.18,0,0,0,197.35,13Z"/><path class="cls-1" d="M271.79,414.82a38.6,38.6,0,0,1-27.38-11.33L232.91,392H216.65a38.79,38.79,0,0,1-38.72-38.76V336.94l-11.5-11.51a38.77,38.77,0,0,1,0-54.8l11.5-11.51V242.84a38.78,38.78,0,0,1,38.72-38.75h16.26l11.5-11.51a38.74,38.74,0,0,1,54.76,0l11.5,11.51h16.26a38.78,38.78,0,0,1,38.72,38.75v16.28l11.5,11.51a38.77,38.77,0,0,1,0,54.8l-11.5,11.51v16.28A38.79,38.79,0,0,1,326.93,392H310.67l-11.5,11.51A38.61,38.61,0,0,1,271.79,414.82ZM216.65,217a25.82,25.82,0,0,0-25.77,25.8v21.65l-15.3,15.3a25.86,25.86,0,0,0,0,36.48l15.3,15.31v21.64A25.81,25.81,0,0,0,216.65,379h21.62l15.3,15.31a25.78,25.78,0,0,0,36.44,0l15.3-15.3h21.62a25.81,25.81,0,0,0,25.77-25.8V331.58L368,316.27a25.86,25.86,0,0,0,0-36.48h0l-15.3-15.3V242.84A25.82,25.82,0,0,0,326.93,217H305.31L290,201.74a25.77,25.77,0,0,0-36.44,0L238.27,217Z"/><path class="cls-1" d="M13,359.69,0,359.47A197.49,197.49,0,0,1,197.35,165.21v13C97.34,178.17,14.62,259.6,13,359.69Z"/><path class="cls-1" d="M250.06,321.9c1.9-1.84,3.76-3.64,5.61-5.45l40.08-38.87c3.59-3.48,7.17-7,10.78-10.45a5.27,5.27,0,0,1,7.46,7.43c-3.35,3.35-6.78,6.61-10.17,9.91L275,312.39l-21.18,20.55a5.28,5.28,0,0,1-7.81-.08L223,309.78a5.17,5.17,0,0,1-1.46-5.54,5,5,0,0,1,4.27-3.59,5,5,0,0,1,4.42,1.45q4.93,4.89,9.84,9.82l9.57,9.58Z"/></svg>