<svg id="Layer_1" data-name="Layer 1" xmlns="http://www.w3.org/2000/svg" viewBox="0 0 470.1 326.71"><defs><style>.cls-1{fill:#2d2d2d;}</style></defs><title>Artboard 15ldpi</title><path class="cls-1" d="M83.83,89.33A78.15,78.15,0,1,1,162,167.48,78.24,78.24,0,0,1,83.83,89.33Zm11.37,0A66.78,66.78,0,1,0,162,22.56,66.85,66.85,0,0,0,95.2,89.33Z"/><path class="cls-1" d="M10.63,326.71,0,326.52C.71,280.84,17.88,238,48.32,205.93S119.18,156.11,162,156.11v11.37C79.89,167.48,12,238.91,10.63,326.71Z"/><path class="cls-1" d="M313.33,326.71l10.62-.19c-.71-45.68-17.88-88.51-48.32-120.59S204.77,156.11,162,156.11v11.37C244.06,167.48,312,238.91,313.33,326.71Z"/><path class="cls-1" d="M316.63,50a49.95,49.95,0,1,1,49.95,49.94A50,50,0,0,1,316.63,50Zm7.26,0A42.69,42.69,0,1,0,366.58,7.26,42.74,42.74,0,0,0,323.89,50Z"/><path class="cls-1" d="M269.84,201.66l-6.79-.12c.46-29.2,11.43-56.57,30.89-77.07s45.28-31.84,72.64-31.84v7.26C314.11,99.89,270.72,145.55,269.84,201.66Z"/><path class="cls-1" d="M463.31,201.66l6.79-.12c-.45-29.2-11.42-56.57-30.88-77.07s-45.29-31.84-72.64-31.84v7.26C419,99.89,462.44,145.55,463.31,201.66Z"/></svg>