<svg id="Layer_1" data-name="Layer 1" xmlns="http://www.w3.org/2000/svg" xmlns:xlink="http://www.w3.org/1999/xlink" viewBox="0 0 229.58 229.58"><defs><style>.cls-1{fill:url(#Degradado_sin_nombre_2);}.cls-2{fill:#fff;}</style><radialGradient id="Degradado_sin_nombre_2" cx="-5.74" cy="230.34" r="424.46" gradientUnits="userSpaceOnUse"><stop offset="0" stop-color="#f5ec53"/><stop offset="0.24" stop-color="#e48244"/><stop offset="0.4" stop-color="#d15767"/><stop offset="0.49" stop-color="#c84278"/><stop offset="1" stop-color="#192cfa"/></radialGradient></defs><title>Artboard 7ldpi</title><rect class="cls-1" width="229.58" height="229.58"/><path class="cls-2" d="M114.79,63.19c16.8,0,18.79.06,25.43.37a34.94,34.94,0,0,1,11.69,2.16,20.87,20.87,0,0,1,11.94,12A34.87,34.87,0,0,1,166,89.36c.3,6.63.37,8.62.37,25.43s-.07,18.79-.37,25.43a34.87,34.87,0,0,1-2.17,11.69,20.89,20.89,0,0,1-11.94,11.94A34.87,34.87,0,0,1,140.22,166c-6.64.3-8.63.37-25.43.37S96,166.32,89.36,166a34.87,34.87,0,0,1-11.69-2.17,19.37,19.37,0,0,1-7.24-4.71,19.57,19.57,0,0,1-4.71-7.23,34.94,34.94,0,0,1-2.16-11.69c-.31-6.64-.37-8.63-.37-25.43s.06-18.8.37-25.43a34.94,34.94,0,0,1,2.16-11.69,20.85,20.85,0,0,1,12-12,34.94,34.94,0,0,1,11.69-2.16c6.63-.31,8.62-.37,25.43-.37m0-11.34c-17.1,0-19.24.07-25.95.38a46.21,46.21,0,0,0-15.28,2.92A32.18,32.18,0,0,0,55.15,73.56a46.26,46.26,0,0,0-2.92,15.28c-.31,6.71-.38,8.86-.38,26s.07,19.23.38,26A46.26,46.26,0,0,0,55.15,156a32.2,32.2,0,0,0,18.41,18.4,46.18,46.18,0,0,0,15.28,2.93c6.71.3,8.85.38,26,.38s19.23-.08,26-.38A46.11,46.11,0,0,0,156,174.42,32.2,32.2,0,0,0,174.42,156a46.23,46.23,0,0,0,2.93-15.28c.3-6.72.38-8.86.38-25.95s-.08-19.24-.38-25.95a46.23,46.23,0,0,0-2.93-15.28A32.18,32.18,0,0,0,156,55.15a46.14,46.14,0,0,0-15.27-2.92c-6.72-.31-8.86-.38-25.95-.38"/><path class="cls-2" d="M114.79,82.47a32.32,32.32,0,1,0,32.32,32.32,32.32,32.32,0,0,0-32.32-32.32m0,53.3a21,21,0,1,1,21-21,21,21,0,0,1-21,21"/><path class="cls-2" d="M155.94,81.19a7.56,7.56,0,1,1-7.56-7.55,7.55,7.55,0,0,1,7.56,7.55"/></svg>