<svg xmlns="http://www.w3.org/2000/svg" xmlns:xlink="http://www.w3.org/1999/xlink" viewBox="0 0 220.26 220.26"><defs><style>.cls-1{isolation:isolate;}.cls-2{opacity:0.92;mix-blend-mode:multiply;fill:url(#linear-gradient);}.cls-3{fill:#fff;}</style><linearGradient id="linear-gradient" x1="-165.99" y1="99.97" x2="3143.69" y2="221.72" gradientUnits="userSpaceOnUse"><stop offset="0" stop-color="#67308c"/><stop offset="1" stop-color="#e84c2f"/></linearGradient></defs><title>Artboard 15ldpi</title><g class="cls-1"><g id="Layer_1" data-name="Layer 1"><circle class="cls-2" cx="110.13" cy="110.13" r="110.13"/><path class="cls-3" d="M153.45,111.63c.27,10.09-3.07,19-9.27,26.84-1.88,2.38-1.74,2.28-.38,5.1a73.7,73.7,0,0,1,4.52,10.71c1.15,3.83-1.33,6.07-5,4.5a42.41,42.41,0,0,1-9.52-5.61c-2.84-2.22-5.1-2.66-8.68-1.3-10.61,4-21.32,3.5-31.74-1.1a2.37,2.37,0,0,0-2.71.3c-3,2.13-5.94,4.23-9,6.16a16.49,16.49,0,0,1-4.67,1.94c-2.42.59-4.22-.86-4.06-3.34a17.09,17.09,0,0,1,1.29-5.45,56.54,56.54,0,0,1,4-7.7,2.58,2.58,0,0,0-.29-3.58c-14.73-17.85-13.34-43.48,3.53-59,12.71-11.71,27.78-14.82,44-9s25.43,18,28.08,35.07A35.51,35.51,0,0,1,153.45,111.63Zm-7.16-.8c.24-18.33-15.93-35.75-37.11-35-18.73.62-34.34,16.91-34.12,36.43a35.61,35.61,0,0,0,36.54,34.93C132.62,146.61,147.12,128.77,146.29,110.83Z"/><path class="cls-3" d="M90.16,67.68C81.46,71.88,75.24,78,70,86a73.38,73.38,0,0,1-5.23-7,5.11,5.11,0,0,1,1.1-6.42c3.66-3.52,7.5-6.87,11.37-10.17a5.63,5.63,0,0,1,7-.21C86.22,63.76,88,65.64,90.16,67.68Z"/><path class="cls-3" d="M150.32,85.85a51.06,51.06,0,0,0-20-18.16,68.06,68.06,0,0,1,6.49-5.89,4.86,4.86,0,0,1,6,.43q6,5,11.74,10.32a5.64,5.64,0,0,1,.63,7.29C153.75,81.89,152.05,83.73,150.32,85.85Z"/><path class="cls-3" d="M112.43,95.92c0,3.26.14,6.54-.05,9.79-.12,2.11,1,2.49,2.6,2.52,3.77.07,7.54.08,11.31.15,1.88,0,3.77.07,5.64.22a2.78,2.78,0,0,1,2.81,3.08c-.07,1.6-1.15,2.63-3,2.66-4.46.09-8.92,0-13.37.21a31.5,31.5,0,0,0-6.21,1,4.49,4.49,0,0,1-5.08-1.85,4,4,0,0,1,.77-5.44,3.38,3.38,0,0,0,1.31-3c0-6.22,0-12.44,0-18.66,0-1.11-.49-2.86,1.45-2.92s1.82,1.61,1.81,3C112.42,89.76,112.43,92.84,112.43,95.92Z"/></g></g></svg>