<svg xmlns="http://www.w3.org/2000/svg" xmlns:xlink="http://www.w3.org/1999/xlink" viewBox="0 0 220.26 220.26"><defs><style>.cls-1{isolation:isolate;}.cls-2{opacity:0.92;mix-blend-mode:multiply;fill:url(#linear-gradient);}.cls-3{fill:#fff;}</style><linearGradient id="linear-gradient" x1="-1106.11" y1="65.39" x2="2203.57" y2="187.13" gradientUnits="userSpaceOnUse"><stop offset="0" stop-color="#67308c"/><stop offset="1" stop-color="#e84c2f"/></linearGradient></defs><title>Artboard 12ldpi</title><g class="cls-1"><g id="Layer_1" data-name="Layer 1"><circle class="cls-2" cx="110.13" cy="110.13" r="110.13"/><path class="cls-3" d="M81.79,160.79a6.09,6.09,0,0,1-6-7.07l4.71-29.18L59.21,104.36a6.09,6.09,0,0,1,3.28-10.42L91.7,89.4l12.61-26.47a6,6,0,0,1,5.43-3.45,5.76,5.76,0,0,1,5.5,3.34L128.58,89.2,157.65,93a6.09,6.09,0,0,1,3.48,10.36l-21,20.84L145.53,153a6.09,6.09,0,0,1-8.78,6.51l-26.3-13.5-25.77,14A6.08,6.08,0,0,1,81.79,160.79ZM64.05,100.16l20.94,20a6.09,6.09,0,0,1,1.8,5.37l-4.61,28.61,25.51-13.73a6.11,6.11,0,0,1,5.67-.06l26,13.33L134,125.09a6.1,6.1,0,0,1,1.7-5.41l20.55-20.42L127.5,95.37a6.08,6.08,0,0,1-4.62-3.29L109.8,66.22,97.23,92.33a6.09,6.09,0,0,1-4.55,3.38Z"/></g></g></svg>