<svg xmlns="http://www.w3.org/2000/svg" xmlns:xlink="http://www.w3.org/1999/xlink" viewBox="0 0 220.26 220.26"><defs><style>.cls-1{isolation:isolate;}.cls-2{opacity:0.92;mix-blend-mode:multiply;fill:url(#linear-gradient);}.cls-3{fill:#fff;}</style><linearGradient id="linear-gradient" x1="-2013.41" y1="32.01" x2="1296.27" y2="153.76" gradientUnits="userSpaceOnUse"><stop offset="0" stop-color="#67308c"/><stop offset="1" stop-color="#e84c2f"/></linearGradient></defs><title>Artboard 9ldpi</title><g class="cls-1"><g id="Layer_1" data-name="Layer 1"><circle class="cls-2" cx="110.13" cy="110.13" r="110.13"/><path class="cls-3" d="M66.22,97.22a26.66,26.66,0,0,0-2.9-.12c-2,.17-2.71-.73-2.65-2.83.1-3.8.15-7.61,0-11.41-.1-2.54.68-3.45,3.12-3.4,7.33.14,14.66.05,22.46.05-.59-1.14-1-1.89-1.36-2.62a11.16,11.16,0,0,1,1.59-13.31c3.3-3.36,8.85-4.1,12.5-.78s6.47,7.35,9.64,11.09c.49.57.89,1.22,1.48,2,2.13-2.91,4-5.7,6.09-8.27A30,30,0,0,1,120.92,63a9.55,9.55,0,0,1,12.83.54c3.53,3.55,4.12,8.92,1.48,13.6-.33.58-.67,1.15-1.38,2.38h6.72c5.41,0,10.82.08,16.23,0,2.12,0,2.89.79,2.79,3-.12,3,0,6,0,9,0,5.36,0,5.36-5.28,5.81-.08,1.24-.24,2.56-.24,3.87,0,18-.1,36,.07,54,0,3.55-1,4.47-4.24,4.45q-39.73-.19-79.48,0c-3.23,0-4.29-.85-4.25-4.43.16-17.88.07-35.75.07-53.63Zm35.41,59.64V97.38H68.86v59.48Zm49.78,0V97.39H118.62v59.47Zm-46.9-59.55v59.52h11.24V97.31ZM101.71,82c-12.6,0-24.81,0-37,.07a2.27,2.27,0,0,0-1.62,1.54c-.15,3.52-.08,7.06-.08,10.76h38.71Zm55.57,12.36c0-3.15-.15-5.92.05-8.66s-.55-3.82-3.37-3.77c-10.71.18-21.42.06-32.13.07-1,0-2.09.11-3.28.18V94.36Zm-48.21-15c-3.51-5.79-6.51-10.82-11.16-14.4-2.8-2.15-5.87-2.43-8.8-.32A7.74,7.74,0,0,0,86,72.79c.61,3.48,3.19,6.32,6.7,6.53C97.8,79.63,103,79.4,109.07,79.4Zm2.13,0c6.08,0,11.22.22,16.35-.08,3.54-.2,6.07-2.94,6.74-6.41a7.91,7.91,0,0,0-3-8.16c-2.66-2.11-6.07-2-9,.3C117.67,68.64,114.68,73.64,111.2,79.41Zm4.54,15V82.22H104.52V94.38Z"/></g></g></svg>