<svg xmlns="http://www.w3.org/2000/svg" xmlns:xlink="http://www.w3.org/1999/xlink" viewBox="0 0 220.26 220.26"><defs><style>.cls-1{isolation:isolate;}.cls-2{opacity:0.92;mix-blend-mode:multiply;fill:url(#linear-gradient);}.cls-3{fill:#fff;}</style><linearGradient id="linear-gradient" x1="-133.16" y1="101.18" x2="3176.52" y2="222.92" gradientUnits="userSpaceOnUse"><stop offset="0" stop-color="#67308c"/><stop offset="1" stop-color="#e84c2f"/></linearGradient></defs><title>Artboard 7ldpi</title><g class="cls-1"><g id="Layer_1" data-name="Layer 1"><circle class="cls-2" cx="110.13" cy="110.13" r="110.13"/><path class="cls-3" d="M84.91,96.77l-5.67-6.5c-1.56-1.8-1.31-3.4.76-4.62A14.52,14.52,0,0,1,89.68,84c3.15.46,6.23,1.36,9.35,2a3.14,3.14,0,0,0,1.46,0,64.84,64.84,0,0,1,23.73-2.61c15.27,1.31,26.79,8.4,33.92,22.17.43.84.75,1.73,1,2.35l6.83-1.88a1.14,1.14,0,0,0,.44-.22c1.38-1.12,2.78-2.2,4.1-3.38a4.35,4.35,0,0,0,1.08-1.64,1.77,1.77,0,0,1,2.06-1.23,1.66,1.66,0,0,1,1.19,2,5.18,5.18,0,0,1-1.87,3.19c-.72.61-1.46,1.21-2.24,1.85.54.38,1.07.69,1.53,1.08a4.59,4.59,0,0,1,1.6,4.67,6.94,6.94,0,0,1-1.92,3.76,4.45,4.45,0,0,1-7-1.14,8.18,8.18,0,0,1-.85-5.3c-1.37.68-2.52,1.2-3.59,1.85-.21.13-.17.81-.11,1.21a31.19,31.19,0,0,1,.17,9,15.34,15.34,0,0,1-2.46,6.53A175.77,175.77,0,0,0,146.93,147c-.79,1.57-1.45,3.21-2.09,4.84a3.54,3.54,0,0,1-3.09,2.29q-3.88.06-7.77.05a3.64,3.64,0,0,1-3.9-3.16c-.22-1-.33-2-.5-3.12a70.62,70.62,0,0,1-18.29.88c0,.77,0,1.47,0,2.17a4.12,4.12,0,0,1-4.24,4.27q-4.25.06-8.47,0c-2.54,0-3.94-1.41-4.61-3.88A44.69,44.69,0,0,0,91.54,145,4.33,4.33,0,0,0,90,143.48c-1.92-1.34-3.9-2.6-5.84-3.94A50.91,50.91,0,0,0,71,132.75,6,6,0,0,1,66.86,127q-.09-4.14,0-8.28a6.08,6.08,0,0,1,3.59-5.52c1.26-.67,2.5-1.37,3.71-2.13a11.78,11.78,0,0,0,3.58-3.72c2.1-3.22,4.3-6.38,6.46-9.56ZM82,88.35c1.89,2.18,3.67,4.24,5.46,6.29,1.25,1.43,1.3,2.44.22,4-2.42,3.54-4.87,7.07-7.22,10.66a15,15,0,0,1-4.29,4.44c-1.37.89-2.8,1.68-4.24,2.46a3,3,0,0,0-1.78,2.85c0,2.52,0,5,0,7.56a2.92,2.92,0,0,0,2.2,3.07,49.62,49.62,0,0,1,12.19,6.13c2.21,1.48,4.3,3.15,6.61,4.44a8.64,8.64,0,0,1,4,4.53c.76,1.92,1.32,3.92,1.91,5.9.21.69.47,1.18,1.29,1.18,2.83,0,5.65,0,8.48,0a1,1,0,0,0,1.11-1.13c0-.85,0-1.7,0-2.55,0-2.18,1.06-3.07,3.22-2.84,1.69.18,3.39.32,5.09.35a72.25,72.25,0,0,0,13.61-1.25c1.87-.32,3,.64,3.06,2.55a25.56,25.56,0,0,0,.35,3.14,1,1,0,0,0,.68.67c2.31.07,4.63.1,6.94.06a1.34,1.34,0,0,0,.95-.68c1.38-2.8,2.51-5.73,4.06-8.42,3-5.1,6.17-10,9.18-15.09a14.69,14.69,0,0,0,1.91-4.45,22.7,22.7,0,0,0-1.53-14.29C149.82,95.82,140.12,89,127,87.07a59.68,59.68,0,0,0-26.33,2.4,3.21,3.21,0,0,1-1.84-.06,36.66,36.66,0,0,0-10.34-2.26A12.23,12.23,0,0,0,82,88.35Zm85.07,22.8a11.94,11.94,0,0,0,.82,2.21,1.64,1.64,0,0,0,1.24.61c.89,0,2.19-2.79,1.16-3.55a5.21,5.21,0,0,0-2.37-.9C167.7,109.5,167.35,110.59,167.07,111.15Z"/><path class="cls-3" d="M119.77,78.93a9.79,9.79,0,1,1,9.9-9.46A9.76,9.76,0,0,1,119.77,78.93Zm.17-16.23a6.47,6.47,0,1,0,6.43,6.55A6.48,6.48,0,0,0,119.94,62.7Z"/><path class="cls-3" d="M134.24,97.46c-.49-.19-.75-.27-1-.38-8.92-4.32-17.86-3.67-26.82-.13a5.39,5.39,0,0,1-.75.31,1.17,1.17,0,0,1-1.53-.67,1.18,1.18,0,0,1,.56-1.57,7.43,7.43,0,0,1,1.11-.51c8.08-3.17,16.29-4,24.66-1.27a26.8,26.8,0,0,1,4.11,1.8,1.7,1.7,0,0,1,.61,1.41C135.15,96.83,134.55,97.15,134.24,97.46Z"/><path class="cls-3" d="M88.58,112.16a2,2,0,1,1,2-2A2,2,0,0,1,88.58,112.16Z"/></g></g></svg>