<svg xmlns="http://www.w3.org/2000/svg" xmlns:xlink="http://www.w3.org/1999/xlink" viewBox="0 0 220.26 220.26"><defs><style>.cls-1{isolation:isolate;}.cls-2{opacity:0.92;mix-blend-mode:multiply;fill:url(#linear-gradient);}.cls-3{fill:#fff;}</style><linearGradient id="linear-gradient" x1="-2046.23" y1="30.81" x2="1263.45" y2="152.55" gradientUnits="userSpaceOnUse"><stop offset="0" stop-color="#67308c"/><stop offset="1" stop-color="#e84c2f"/></linearGradient></defs><title>Artboard 11ldpi</title><g class="cls-1"><g id="Layer_1" data-name="Layer 1"><circle class="cls-2" cx="110.13" cy="110.13" r="110.13"/><path class="cls-3" d="M138.89,106.08c3.66.64,5.08,2.63,5.05,6-.12,12,0,24.06,0,36.09,0,1.27-.08,2.54-.14,3.8-.19,4.08-4.91,8-8.6,7.95q-24.93-.31-49.87,0c-4.55.05-8.81-4.39-8.83-8.4,0-5.91-.15-11.82-.15-17.73,0-7.28.05-14.56.08-21.84,0-3.74,1-5,4.89-5.83,0-.55,0-1.16,0-1.76.11-6.07,0-12.15.4-18.2A25.93,25.93,0,0,1,90.36,68.4c7.93-7.31,17.29-9.9,27.69-6.83,10.66,3.14,17.45,10.41,20,21.26a47.77,47.77,0,0,1,.79,9.59C139,97,138.89,101.48,138.89,106.08Zm-9,.15a12.64,12.64,0,0,0,.12-1.29q-.08-9.56-.18-19.13a5.08,5.08,0,0,0-.19-1.4,20.31,20.31,0,0,0-22-15.14c-9.1.92-17,9.23-17.23,18.37-.16,5.79-.09,11.59-.11,17.39a7.05,7.05,0,0,0,.16,1.2Zm-25.82,38.26h12.09c0-.57,0-1-.12-1.49-.64-3.63-1.34-7.26-1.91-10.9a3.21,3.21,0,0,1,.47-2.12,5.6,5.6,0,0,0-.45-7.25,5.41,5.41,0,0,0-7.2-.72,5.32,5.32,0,0,0-1.59,7.16,5.12,5.12,0,0,1,.63,4.43c-.19.87-.34,1.76-.49,2.64C105,138.93,104.55,141.62,104.05,144.49Z"/></g></g></svg>