<svg xmlns="http://www.w3.org/2000/svg" xmlns:xlink="http://www.w3.org/1999/xlink" viewBox="0 0 220.26 220.26"><defs><style>.cls-1{isolation:isolate;}.cls-2{opacity:0.92;mix-blend-mode:multiply;fill:url(#linear-gradient);}.cls-3{fill:#fff;}</style><linearGradient id="linear-gradient" x1="-2953.53" y1="-2.57" x2="356.15" y2="119.18" gradientUnits="userSpaceOnUse"><stop offset="0" stop-color="#67308c"/><stop offset="1" stop-color="#e84c2f"/></linearGradient></defs><title>Artboard 10ldpi</title><g class="cls-1"><g id="Layer_1" data-name="Layer 1"><circle class="cls-2" cx="110.13" cy="110.13" r="110.13"/><path class="cls-3" d="M81.44,98.77c-.14-1.19-.29-2.39-.41-3.58-.08-.74.25-1.24,1-1.28s1.07.45,1.16,1.16c.17,1.32.37,2.63.59,3.94.17,1-.07,1.58-.79,1.68-.88.11-1.19-.46-1.33-1.2,0-.24-.11-.48-.17-.72Z"/><path class="cls-3" d="M81.08,90.87c0-.46,0-.68,0-.89.26-1.43.5-2.87.8-4.29a1,1,0,0,1,1.38-.87c.68.2.86.71.73,1.39-.28,1.4-.46,2.81-.82,4.19a1.62,1.62,0,0,1-1,1C81.87,91.47,81.42,91,81.08,90.87Z"/><path class="cls-3" d="M120.38,66.46c.2,1-.45,1.64-1.23,1.45-1.53-.37-3.06-.75-4.55-1.27a1.45,1.45,0,0,1-.65-1.22,1.29,1.29,0,0,1,1-.77c1.63.33,3.24.78,4.84,1.26C120.08,66,120.27,66.35,120.38,66.46Z"/><path class="cls-3" d="M137.9,99.88a2.57,2.57,0,0,1,0,.75c-.53,1.51-1,3.05-1.68,4.52a1.48,1.48,0,0,1-1.29.49c-.63-.11-.83-.72-.63-1.33.5-1.46,1-2.93,1.59-4.35a1.4,1.4,0,0,1,1.09-.63C137.3,99.31,137.65,99.72,137.9,99.88Z"/><path class="cls-3" d="M93.65,114.8c-.14.27-.23.75-.5.91a1.3,1.3,0,0,1-1.17.1,47.2,47.2,0,0,1-3.69-3.52c-.2-.21-.08-1,.17-1.28a1.24,1.24,0,0,1,1.21-.15c1.3,1.1,2.5,2.3,3.73,3.48A2.31,2.31,0,0,1,93.65,114.8Z"/><path class="cls-3" d="M85,82.49c-1,.21-1.76-.54-1.4-1.31.72-1.5,1.58-2.94,2.44-4.36a.93.93,0,0,1,1.4-.22,1,1,0,0,1,.32,1.46c-.71,1.3-1.43,2.6-2.18,3.88A2.36,2.36,0,0,1,85,82.49Z"/><path class="cls-3" d="M89.76,75c-.21-.11-.71-.2-.89-.5a1.28,1.28,0,0,1,0-1.17,50.43,50.43,0,0,1,3.87-3.43A1,1,0,0,1,94,71.4c-1.23,1.21-2.55,2.33-3.85,3.47C90.11,74.91,90,74.91,89.76,75Z"/><path class="cls-3" d="M128.5,71.28c-.12.26-.21.72-.48.9a1.26,1.26,0,0,1-1.11.12c-1.39-.86-2.76-1.77-4.06-2.76a1.25,1.25,0,0,1-.19-1.22c.2-.32,1-.66,1.18-.52,1.49.87,2.91,1.87,4.34,2.84C128.31,70.73,128.35,71,128.5,71.28Z"/><path class="cls-3" d="M139,90.91c-.07,1.84-.08,3.48-.25,5.11a1,1,0,0,1-2-.2c-.09-1.54,0-3.09,0-4.63a.93.93,0,0,1,1.08-1C138.18,90.24,138.56,90.65,139,90.91Z"/><path class="cls-3" d="M137.84,85.37c.09.36.19.72.25,1.08.11.61-.14,1.15-.73,1.19a1.49,1.49,0,0,1-1.25-.58,35,35,0,0,1-1.5-4.58c-.08-.32.36-1,.73-1.17a.88.88,0,0,1,1.27.56c.46,1.15.87,2.32,1.29,3.48Z"/><path class="cls-3" d="M134.26,108.42a5,5,0,0,1-.46,1.09c-.86,1.13-1.75,2.25-2.66,3.34a1.06,1.06,0,0,1-1.69.2c-.54-.52-.4-1.09.06-1.65.89-1.07,1.71-2.2,2.63-3.24a1.65,1.65,0,0,1,1.18-.46C133.63,107.71,133.91,108.13,134.26,108.42Z"/><path class="cls-3" d="M116.2,119.11l2.07-.49a1,1,0,0,1,1.34.64,1,1,0,0,1-.7,1.38c-1.52.42-3,.79-4.59,1.1a1,1,0,0,1-1.22-.95c-.07-.68.31-1,.94-1.16s1.44-.34,2.16-.51Z"/><path class="cls-3" d="M100.6,65.61c1-.16,1.49,0,1.69.68a1,1,0,0,1-.69,1.33c-1.34.55-2.68,1.13-4,1.68a1.08,1.08,0,1,1-1-1.93C98,66.72,99.44,66.12,100.6,65.61Z"/><path class="cls-3" d="M105.75,64.36c1.48-.08,3-.17,4.44-.22a1,1,0,0,1,1.22,1.09c0,.77-.55,1-1.25,1.08-1.39.08-2.78.16-4.16.28-.7.06-1.17-.19-1.28-.89S105.07,64.58,105.75,64.36Z"/><path class="cls-3" d="M130.72,73.43c.17.09.62.17.83.43,1,1.2,1.91,2.44,2.81,3.69a1,1,0,0,1-.29,1.53,1,1,0,0,1-1.53-.36c-.87-1.16-1.76-2.31-2.63-3.48C129.39,74.54,129.69,73.67,130.72,73.43Z"/><path class="cls-3" d="M123.1,119.1c-.46-.3-1-.46-1.12-.77a1.44,1.44,0,0,1,.23-1.29,40.86,40.86,0,0,1,4.15-2.63,1.4,1.4,0,0,1,1.25.39,1.25,1.25,0,0,1-.06,1.22C126.15,117.08,124.67,118,123.1,119.1Z"/><path class="cls-3" d="M101.53,119c.2.92-.48,1.7-1.21,1.42a42.93,42.93,0,0,1-4.62-2.13c-.26-.15-.38-1-.22-1.35a1.34,1.34,0,0,1,1.23-.42c1.47.56,2.89,1.25,4.31,1.94C101.27,118.57,101.43,118.88,101.53,119Z"/><path class="cls-3" d="M104.54,119.49l.86.06c1.33.12,2.65.28,4,.37.73,0,1.22.33,1.24,1.08a1,1,0,0,1-1.21,1.08c-1.51-.11-3-.26-4.53-.43a1,1,0,0,1-1-1.15C104,120.12,104.36,119.78,104.54,119.49Z"/><path class="cls-3" d="M86.34,109.18c-.2-.13-.73-.29-.93-.64-.77-1.3-1.46-2.66-2.12-4a1,1,0,0,1,.5-1.48c.7-.3,1.17,0,1.5.65.63,1.25,1.29,2.47,1.94,3.7C87.64,108.19,87.39,108.91,86.34,109.18Z"/><path class="cls-3" d="M126.62,163l-.18-38.48.41-.1c.1-1.13.7-1.67,1.93-1.72.93,0,1.86,0,2.79-.1a3.26,3.26,0,0,0,3.08-2.65c.21-.87.43-1.75.58-2.63a1.76,1.76,0,0,1,1.35-1.47c1.15-.4,2.29-.85,3.55-1.35l1.12-4.8a6.09,6.09,0,0,1,0-1.14,2.18,2.18,0,0,1,.62-1.33c.76-.68,1.65-1.21,2.47-1.83a3.29,3.29,0,0,0,1.1-3.91c-.35-.9-.69-1.8-1.07-2.68a1.47,1.47,0,0,1,.2-1.65c.59-.75,1.17-1.52,1.73-2.31a3.28,3.28,0,0,0-.06-4.21,23,23,0,0,0-1.51-1.88,1.9,1.9,0,0,1-.42-2.36,21.75,21.75,0,0,0,.89-2.45,3.27,3.27,0,0,0-1.31-3.85c-.74-.52-1.47-1-2.24-1.51a1.69,1.69,0,0,1-.91-1.77c.09-.84.09-1.68.12-2.51a3.34,3.34,0,0,0-2.61-3.68,21.86,21.86,0,0,1-2.56-.83,2.2,2.2,0,0,1-1.08-1.11,23.36,23.36,0,0,1-.75-2.79,3.24,3.24,0,0,0-3.23-2.57c-1,0-2,0-3,0a1.48,1.48,0,0,1-1.44-.81c-.45-.75-.9-1.49-1.36-2.23a3.4,3.4,0,0,0-4.38-1.59c-.8.25-1.61.47-2.4.75a1.52,1.52,0,0,1-1.7-.38c-.64-.6-1.3-1.16-2-1.73a3.36,3.36,0,0,0-4.43-.29c-.72.48-1.46.95-2.15,1.48a1.63,1.63,0,0,1-1.9.16c-.77-.39-1.57-.73-2.37-1.07a3.42,3.42,0,0,0-4.26,1,19.28,19.28,0,0,0-1.38,1.75,2,2,0,0,1-2.37,1,19,19,0,0,0-2.4-.3,3.3,3.3,0,0,0-3.54,2.15c-.35.86-.71,1.72-1,2.6A1.66,1.66,0,0,1,87.06,67c-.9.12-1.78.29-2.66.48a3.26,3.26,0,0,0-2.8,3.24c-.06.8-.17,1.61-.16,2.41A1.82,1.82,0,0,1,80.19,75c-.71.3-1.38.7-2.07,1.06a3.34,3.34,0,0,0-1.9,4.09,20.39,20.39,0,0,1,.57,2.64,2.26,2.26,0,0,1-.42,1.49,21.39,21.39,0,0,1-1.9,1.91,3.35,3.35,0,0,0-.58,4.55c.43.75.84,1.52,1.31,2.25a1.43,1.43,0,0,1,0,1.65c-.43.75-.84,1.52-1.24,2.29a3.39,3.39,0,0,0,.79,4.6,17.83,17.83,0,0,1,1.89,1.79,2.27,2.27,0,0,1,.48,1.46,24.19,24.19,0,0,1-.49,2.65,3.37,3.37,0,0,0,2,4c.73.35,1.44.74,2.19,1a1.83,1.83,0,0,1,1.24,1.78,25.48,25.48,0,0,0,.29,2.77,3.21,3.21,0,0,0,2.82,2.81,20.82,20.82,0,0,0,2.22.32c1.57.08,2.3.68,2.3,2.72,0,13-.09,26.06-.14,39.09,0,1.81.54,2.16,2.22,1.47,5.17-2.1,10.35-4.19,15.52-6.31a1.93,1.93,0,0,1,1.66,0c5.21,2.19,10.44,4.34,15.66,6.5C125.87,164.17,126.45,164,126.62,163Zm-38-44.81c-.86-.12-1.71-.26-2.57-.39-1.24-.19-1.44-.39-1.59-1.66q-.12-1.11-.21-2.22a3.62,3.62,0,0,0-2.32-3.31c-.74-.31-1.45-.71-2.19-1a1.37,1.37,0,0,1-.91-1.78c.21-.9.36-1.82.54-2.73a3.37,3.37,0,0,0-1.07-3.29c-.69-.63-1.36-1.28-2.06-1.89A1.32,1.32,0,0,1,75.88,98c.49-.82.93-1.68,1.37-2.54a3.26,3.26,0,0,0,0-3.29c-.49-.86-1-1.72-1.49-2.57A1.31,1.31,0,0,1,76,87.75c.64-.59,1.23-1.24,1.87-1.82a3.46,3.46,0,0,0,1.08-3.71c-.22-.81-.37-1.64-.58-2.45a1.44,1.44,0,0,1,.9-1.88c.82-.38,1.61-.81,2.41-1.22a3.35,3.35,0,0,0,1.9-2.89c.07-.87.17-1.73.18-2.6a1.48,1.48,0,0,1,1.48-1.66,11.11,11.11,0,0,0,1.27-.29v0c.49-.07,1-.12,1.47-.23A3.34,3.34,0,0,0,90.44,67c.38-1,.74-1.91,1.12-2.86A1.23,1.23,0,0,1,93,63.24c1,.15,2,.25,3,.35a3.39,3.39,0,0,0,3.13-1.26c.58-.7,1.16-1.39,1.68-2.12a1.43,1.43,0,0,1,2.08-.53c.83.42,1.69.77,2.55,1.14a3.27,3.27,0,0,0,3.2-.27c.83-.54,1.65-1.09,2.45-1.68A1.34,1.34,0,0,1,113,59c.7.65,1.44,1.28,2.17,1.9a3.17,3.17,0,0,0,3.13.7c.86-.25,1.72-.52,2.58-.79,1.26-.39,1.55-.28,2.22.81l1.32,2.14a3.38,3.38,0,0,0,3.09,1.73c.87,0,1.74,0,2.6,0a1.44,1.44,0,0,1,1.72,1.29c.16.85.41,1.69.64,2.53a3.47,3.47,0,0,0,2.6,2.65c.87.24,1.72.53,2.58.78a1.29,1.29,0,0,1,1,1.44c0,.9-.07,1.8-.13,2.7a3.51,3.51,0,0,0,1.75,3.45c.73.47,1.43,1,2.16,1.46a1.28,1.28,0,0,1,.55,1.75c-.35.9-.66,1.81-1,2.72a3.35,3.35,0,0,0,.55,3.33c.61.78,1.23,1.56,1.86,2.33a1.23,1.23,0,0,1,0,1.69c-.58.77-1.15,1.54-1.73,2.3a3.38,3.38,0,0,0-.47,3.59c.36.86.68,1.73,1,2.6a1.28,1.28,0,0,1-.49,1.7c-.74.52-1.45,1.07-2.19,1.58a3.49,3.49,0,0,0-1.61,3.52c.1.83.12,1.67.21,2.5a1.38,1.38,0,0,1-1.1,1.67c-.92.28-1.83.61-2.74.93a3.28,3.28,0,0,0-2.2,2.55c-.18.82-.38,1.64-.56,2.45-.29,1.26-.52,1.46-1.83,1.5l-2.33,0a3.54,3.54,0,0,0-3.26,2c-.41.8-.9,1.56-1.34,2.34a1.25,1.25,0,0,1-1.63.68c-.92-.27-1.85-.51-2.78-.77a3.43,3.43,0,0,0-3.37.81c-.67.6-1.34,1.2-2,1.84a1.41,1.41,0,0,1-2.06.22c-.73-.52-1.52-1-2.27-1.46a3.35,3.35,0,0,0-3.45-.24c-.87.41-1.75.8-2.6,1.26a1.29,1.29,0,0,1-1.8-.38l-1.86-2.2a3.39,3.39,0,0,0-3.34-1.19c-.86.14-1.72.24-2.57.41a1.42,1.42,0,0,1-1.82-1c-.32-.84-.69-1.66-1-2.49A3.27,3.27,0,0,0,88.58,118.17Zm34.93,42.66c-4.76-2-9.52-3.94-14.27-5.94a2.63,2.63,0,0,0-2.21,0c-4.94,2-9.88,4-14.83,6a3.27,3.27,0,0,1-.44.07c0-11.8.09-23.5.14-35.34,1.75.71,3.37.06,5-.14a1.61,1.61,0,0,1,1.64.6c.59.75,1.23,1.48,1.86,2.2a3.25,3.25,0,0,0,4,.85c.76-.34,1.53-.68,2.26-1.09a1.89,1.89,0,0,1,2.32.12,24.46,24.46,0,0,0,2.11,1.36,3.32,3.32,0,0,0,4.2-.38c.67-.6,1.34-1.21,2-1.85a1.62,1.62,0,0,1,1.85-.46c.58.2,1.2.31,1.79.51a4.23,4.23,0,0,0,3.7-.21c-.05,11.4-.09,22.62-.13,34C124.11,161.05,123.8,161,123.51,160.83Z"/></g></g></svg>