<svg xmlns="http://www.w3.org/2000/svg" xmlns:xlink="http://www.w3.org/1999/xlink" viewBox="0 0 220.26 220.26"><defs><style>.cls-1{isolation:isolate;}.cls-2{opacity:0.92;mix-blend-mode:multiply;fill:url(#linear-gradient);}.cls-3{fill:none;stroke:#fff;stroke-miterlimit:10;}.cls-4{fill:#fff;}</style><linearGradient id="linear-gradient" y1="110.13" x2="220.26" y2="110.13" gradientUnits="userSpaceOnUse"><stop offset="0" stop-color="#67308c"/><stop offset="1" stop-color="#e84c2f"/></linearGradient></defs><title>Artboard 8ldpi</title><g class="cls-1"><g id="Layer_1" data-name="Layer 1"><circle class="cls-2" cx="110.13" cy="110.13" r="110.13"/><rect class="cls-3" x="73.42" y="59.06" width="73.41" height="102.14"/><rect class="cls-3" x="87.78" y="70.23" width="15.96" height="19.15"/><rect class="cls-3" x="87.78" y="102.15" width="15.96" height="19.15"/><rect class="cls-3" x="87.78" y="134.07" width="15.96" height="19.15"/><line class="cls-3" x1="113.32" y1="86.19" x2="138.85" y2="86.19"/><line class="cls-3" x1="116.51" y1="118.11" x2="138.85" y2="118.11"/><line class="cls-3" x1="113.32" y1="143.64" x2="138.85" y2="143.64"/><line class="cls-3" x1="113.32" y1="79.8" x2="119.7" y2="79.8"/><line class="cls-3" x1="129.28" y1="79.8" x2="138.85" y2="79.8"/><line class="cls-3" x1="116.51" y1="111.72" x2="122.9" y2="111.72"/><line class="cls-3" x1="129.28" y1="111.72" x2="138.85" y2="111.72"/><line class="cls-3" x1="113.32" y1="137.26" x2="122.9" y2="137.26"/><line class="cls-3" x1="129.28" y1="137.26" x2="138.85" y2="137.26"/><path class="cls-4" d="M95.56,112.34,97,111l9.9-9.6,2.66-2.58a1.3,1.3,0,0,1,1.84,1.84c-.82.82-1.67,1.63-2.51,2.44L101.73,110l-5.23,5.07a1.3,1.3,0,0,1-1.93,0l-5.7-5.7a1.27,1.27,0,0,1-.36-1.37,1.31,1.31,0,0,1,2.15-.53l2.43,2.43,2.36,2.36Z"/></g></g></svg>