<svg xmlns="http://www.w3.org/2000/svg" xmlns:xlink="http://www.w3.org/1999/xlink" viewBox="0 0 220.26 220.26"><defs><style>.cls-1{isolation:isolate;}.cls-2{opacity:0.92;mix-blend-mode:multiply;fill:url(#linear-gradient);}.cls-3{fill:#fff;}</style><linearGradient id="linear-gradient" x1="-2986.36" y1="-3.78" x2="323.32" y2="117.97" gradientUnits="userSpaceOnUse"><stop offset="0" stop-color="#67308c"/><stop offset="1" stop-color="#e84c2f"/></linearGradient></defs><title>Artboard 13ldpi</title><g class="cls-1"><g id="Layer_1" data-name="Layer 1"><circle class="cls-2" cx="110.13" cy="110.13" r="110.13"/><path class="cls-3" d="M136.66,106.6q0,18.7,0,37.42c0,3-.49,3.46-3.43,3.46-13.24,0-26.48.05-39.71-.06a6,6,0,0,1-3.74-1.58Q82,138.41,74.6,130.67a5.69,5.69,0,0,1-1.5-3.54C73,107.89,73,88.64,73,69.4c0-3.23.36-3.58,3.51-3.58h56.6c3.16,0,3.5.35,3.5,3.58Q136.67,88,136.66,106.6ZM132.3,70.2H77.4v55.9H89.08c5.28,0,5.28,0,5.28,5.3V143H132.3ZM89.86,139.49V130.6H80.79C83.91,133.66,86.86,136.56,89.86,139.49Z"/><path class="cls-3" d="M142.78,150V77.14l-4.56-.23V72.73a59.39,59.39,0,0,1,6.93.1c.73.08,1.42,1.26,1.95,2.06.24.38.05,1,.05,1.57v74.15c0,3.45-.31,3.77-3.79,3.77-12.62,0-25.25-.08-37.87.06-2.67,0-4.69-.58-6.36-2.66a31.48,31.48,0,0,1-2.4-2.55c2.94.28,5.91-1.65,8.56.73.28.25.88.15,1.34.15q17.45,0,34.9,0A11.89,11.89,0,0,0,142.78,150Z"/><path class="cls-3" d="M105.75,109.51c-5.77,0-11.54.08-17.3-.08a3.79,3.79,0,0,1-2.76-1.69c-.71-1.36.76-2.58,3-2.59q12.42,0,24.83,0c3.18,0,6.37,0,9.56,0,1.62,0,3,.4,3,2.29s-1.46,2.09-3,2.09Z"/><path class="cls-3" d="M105.8,82.85h16.63c.68,0,1.5-.14,2,.19.67.44,1.5,1.26,1.51,1.93a3.09,3.09,0,0,1-1.41,2c-.47.34-1.31.2-2,.2H88.83c-1.65.07-3.28-.2-3.24-2.24s1.74-2.14,3.36-2.13c3.41,0,6.83,0,10.25,0Z"/><path class="cls-3" d="M105.77,98.29c-5.71,0-11.42,0-17.12,0-1.61,0-3.1-.25-3.07-2.15S87.13,94,88.72,94q17.11,0,34.24,0c1.59,0,3.08.22,3.05,2.17s-1.56,2.09-3.12,2.08C117.18,98.27,111.47,98.29,105.77,98.29Z"/><path class="cls-3" d="M105.54,120.63c-5.56,0-11.11,0-16.66,0-1.65,0-3.29-.13-3.29-2.19s1.57-2.1,3.13-2.09q17.11,0,34.24,0c1.58,0,3.09.21,3.05,2.16s-1.55,2.13-3.13,2.12C117.1,120.61,111.32,120.63,105.54,120.63Z"/></g></g></svg>