<svg id="Layer_1" data-name="Layer 1" xmlns="http://www.w3.org/2000/svg" viewBox="0 0 171.54 155.41"><defs><style>.cls-1{fill:#ef6b25;}.cls-2{fill:#fff;}</style></defs><title>Artboard 3ldpi</title><path class="cls-1" d="M140.47,124.23,171.54,155c-2.4.18-3.55.34-4.7.34-30,0-59.89.09-89.84,0-37.71-.13-70.89-29-76.19-66.22a77.83,77.83,0,0,1,153.32-26.6c4.17,21.22,0,40.78-11.9,58.78C141.61,122.25,141.07,123.24,140.47,124.23ZM47.56,114.1c.06,3.42,2.84,5,6.32,3.27,6.63-3.36,13.26-6.74,19.69-10.45,3.15-1.83,5.66-1.65,8.72.09,6.2,3.54,12.53,6.86,18.94,10,1.46.71,4.11,1.11,5,.31,1.16-1,1.71-3.5,1.47-5.2-1-7.18-2.4-14.31-3.7-21.45a7.45,7.45,0,0,1,2.6-7.56c5.42-4.88,10.61-10,15.68-15.25,1.13-1.16,2.19-3.44,1.78-4.72s-2.61-2.56-4.2-2.84C112.27,59,104.6,58.11,97,56.72a7.57,7.57,0,0,1-4.73-3.24c-3.36-6.12-6.14-12.56-9.46-18.71-1.12-2.07-3.23-3.6-4.89-5.38-1.68,1.72-3.84,3.19-5,5.23-3.28,6-6.23,12.2-9.16,18.38-1.12,2.38-2.44,3.66-5.36,4-7.51.79-15,2-22.43,3.34-1.62.28-4,1.48-4.31,2.67-.35,1.49.69,3.82,1.88,5.07,4.73,5,9.57,9.87,14.75,14.35,3.27,2.82,3.93,5.66,3,9.73C49.84,99.35,48.83,106.69,47.56,114.1Z"/><path class="cls-2" d="M47.56,114.1c1.27-7.41,2.28-14.75,3.85-22,.88-4.07.22-6.91-3-9.73C43.18,77.91,38.34,73,33.61,68c-1.19-1.25-2.23-3.58-1.88-5.07C32,61.78,34.42,60.58,36,60.3,43.48,59,51,57.75,58.47,57c2.92-.3,4.24-1.58,5.36-4,2.93-6.18,5.88-12.38,9.16-18.38,1.12-2,3.28-3.51,5-5.23,1.66,1.78,3.77,3.31,4.89,5.38,3.32,6.15,6.1,12.59,9.46,18.71A7.57,7.57,0,0,0,97,56.72c7.57,1.39,15.24,2.25,22.83,3.6,1.59.28,3.77,1.54,4.2,2.84s-.65,3.56-1.78,4.72C117.21,73.12,112,78.25,106.6,83.13a7.45,7.45,0,0,0-2.6,7.56c1.3,7.14,2.69,14.27,3.7,21.45.24,1.7-.31,4.17-1.47,5.2-.89.8-3.54.4-5-.31-6.41-3.16-12.74-6.48-18.94-10-3.06-1.74-5.57-1.92-8.72-.09-6.43,3.71-13.06,7.09-19.69,10.45C50.4,119.14,47.62,117.52,47.56,114.1Z"/></svg>