<svg id="Layer_1" data-name="Layer 1" xmlns="http://www.w3.org/2000/svg" viewBox="0 0 251.6 251.6"><defs><style>.cls-1{fill:#29a9e1;}.cls-2{fill:#fff;}</style></defs><title>Artboard 23ldpi</title><rect class="cls-1" width="251.6" height="251.6"/><path class="cls-2" d="M58.77,167.91a77.82,77.82,0,0,0,42.16,12.36c51.06,0,79.91-43.13,78.17-81.81a55.83,55.83,0,0,0,13.73-14.24A54.87,54.87,0,0,1,177,88.55a27.54,27.54,0,0,0,12.09-15.21A55,55,0,0,1,171.66,80a27.53,27.53,0,0,0-46.87,25.09A78.06,78.06,0,0,1,68.11,76.36a27.53,27.53,0,0,0,8.51,36.72,27.33,27.33,0,0,1-12.46-3.44A27.54,27.54,0,0,0,86.22,137a27.52,27.52,0,0,1-12.42.46,27.52,27.52,0,0,0,25.69,19.11A55.27,55.27,0,0,1,58.77,167.91Z"/></svg>