<svg id="Layer_1" data-name="Layer 1" xmlns="http://www.w3.org/2000/svg" xmlns:xlink="http://www.w3.org/1999/xlink" viewBox="0 0 354.75 213.54"><defs><style>.cls-1{fill:none;}.cls-2{fill:#fff;stroke:#384199;stroke-miterlimit:10;}.cls-3{fill:#2a3688;}.cls-4{fill:#fcfdff;}.cls-5{fill:#f6a71b;}.cls-6{clip-path:url(#clip-path);}</style><clipPath id="clip-path"><rect class="cls-1" x="-450.11" y="-0.99" width="365.23" height="215.52"/></clipPath></defs><title>Artboard 16ldpi</title><rect class="cls-2" x="0.5" y="0.5" width="353.75" height="212.54"/><polygon class="cls-3" points="233.96 134.74 233.96 134.74 233.96 134.74 233.96 134.74"/><path class="cls-3" d="M216.9,78.51a25.72,25.72,0,0,1,9.41-.59,40.31,40.31,0,0,1,13.24,3.37c.28.12.57.19.85.29.64-1.64,3.79-16.69,3.69-17.55-.12-.06-.25-.13-.38-.18A55.35,55.35,0,0,0,216.16,61a38.62,38.62,0,0,0-16.5,6.21,25.11,25.11,0,0,0-10.79,15.42,21.75,21.75,0,0,0-.16,9.5,20.53,20.53,0,0,0,6.54,10.74,45.74,45.74,0,0,0,10,6.8c2.14,1.11,4.31,2.17,6.39,3.4a34.89,34.89,0,0,1,4,2.93,6,6,0,0,1,2,3.3,6.51,6.51,0,0,1-2.75,6.89,13.8,13.8,0,0,1-6.19,2.39,39.36,39.36,0,0,1-16.64-1.34c-1.64-.47-3.22-1.1-4.83-1.66l-.22-.12-.7-.29-.59-.27-1.05-.5-1.49-.7c-1.32,6.15-2.6,12.13-3.88,18.14.51.23.89.44,1.28.57,1.79.58,3.56,1.24,5.38,1.69A68.67,68.67,0,0,0,208.31,146a44.79,44.79,0,0,0,16.86-4.49,13.71,13.71,0,0,0,1.3-.84l.24-.23,1.5-1.25c.08-.15.15-.41.24-.42.88-.07,1.42-.74,2.11-1.15a1.29,1.29,0,0,1,.49-.07c0-.8.54-1.13,1.2-1.35.5-.58.91-1.26,1.71-1.49a1.22,1.22,0,0,1,1.06-1.28l0,0v-.06l.18-.34a14.27,14.27,0,0,0,1-1.23,25.65,25.65,0,0,0,4-13.19,19.7,19.7,0,0,0-5.78-15.06,39.83,39.83,0,0,0-9.34-6.81c-2.79-1.57-5.61-3.06-8.4-4.62a18.14,18.14,0,0,1-4.61-3.41,5.19,5.19,0,0,1,.28-7.75A10.74,10.74,0,0,1,216.9,78.51Z"/><path class="cls-3" d="M228.45,138.81c-.09,0-.16.26-.24.41l-1.5,1.25c.17,0,.38,0,.5-.06.67-.44,1.33-.9,2-1.36l1.85-1.47a1.29,1.29,0,0,0-.49.07C229.87,138.06,229.33,138.73,228.45,138.81Z"/><path class="cls-3" d="M234,134.74c-.8.23-1.21.91-1.71,1.49-.66.22-1.2.55-1.2,1.35l1.23-1.08,1.68-1.76,1.06-1.28A1.22,1.22,0,0,0,234,134.74Z"/><path class="cls-3" d="M315.09,143.74q-2.1-10.55-4.23-21.08l-6.27-31.09q-2.5-12.37-5-24.73c-.3-1.5-.67-3-1-4.46l0-.07-.06-.05c-.08-.1-.17-.28-.25-.28h-.21l.06-.12H273.52L267,78.11h0q-4.45,10.64-8.93,21.28Q254,109.1,250,118.81c-1.26,3-2.48,6-3.71,9h0c-.49,1.16-1,2.32-1.46,3.48l0,.06a4,4,0,0,0-.26.45q-2.22,5.31-4.45,10.64c-.32.77-.62,1.55-1,2.43h.62a4.24,4.24,0,0,1,.12-1.09,4.24,4.24,0,0,0-.12,1.09H241a.87.87,0,0,1,.36-.33.87.87,0,0,0-.36.33h4.7s.06,0,.1,0c5,0,10,0,15,0,.17,0,.34-.16.51-.25.19-.5.38-1,.56-1.5s.38-.83.54-1.26c1-2.79,2-5.58,3.05-8.36a6.51,6.51,0,0,1,.63-1.07c.59,0,1.19,0,1.79,0l8.64,0c2.33,0,4.66.06,7,.07,2,0,4,0,6-.06l3.19,0,.21,0,.21.2c0,.07.05.14.07.2.12.51.25,1,.37,1.52a4.35,4.35,0,0,0,0,.63q.87,4.28,1.75,8.55c.09.41.2.81.32,1.3h16.76c.88,0,1.76-.06,2.64-.1A6.62,6.62,0,0,0,315.09,143.74Zm-73.68-3.46c.21,0,.41-.07.36-.23C241.82,140.21,241.62,140.25,241.41,140.28Zm.64-1.49h0c.25-.56.5-1.12.74-1.68C242.55,137.67,242.3,138.23,242.05,138.79Zm2.35-5.56a.57.57,0,0,0,.33-.09A.57.57,0,0,1,244.4,133.23Zm4.09-2a1,1,0,0,0,0-.53A1,1,0,0,1,248.49,131.23Zm-.68-6.09a1.55,1.55,0,0,0,0,.22h0A1.55,1.55,0,0,1,247.81,125.14ZM247,136.61c-.09.09-.18.16-.26.23.08-.07.17-.14.26-.23Zm1.95-3.62a2.52,2.52,0,0,0-.12-.79A2.47,2.47,0,0,1,248.91,133Zm.45,5.53a.93.93,0,0,0,.3-.09A.93.93,0,0,1,249.36,138.52ZM251,126.34c-.07-.21-.12-.37-.15-.5C250.9,126,251,126.13,251,126.34Zm.56-1.27a2.41,2.41,0,0,0-.45.21,2.41,2.41,0,0,1,.45-.21c.25-.11.44-.18.58-.26A5,5,0,0,1,251.58,125.07Zm1.56-12.72c.14-.35.28-.7.41-1.06a.91.91,0,0,1,.08.65.91.91,0,0,0-.08-.65c-.13.36-.27.71-.41,1.06Zm1.29-3,.06,0Zm0-.19.21-.44.21-.42-.21.42Zm2.13-4.91c.1-.19.19-.38.28-.57l-.27.57Zm.64,8.74c.28-.29.57-.57.85-.85h0Zm.64-11.94c-.07.21-.14.43-.22.64.08-.21.15-.43.22-.64.55-1.36,1.1-2.72,1.66-4.07C258.92,98.34,258.37,99.7,257.82,101.06Zm3-7-.21.64.21-.64.21-.42ZM262,110c-.06,0-.13-.08-.17-.07s.11,0,.17.07Zm3.5,1.44c.49-.26.8-1,1.48-1h0c.15,0,.37.06.49.11-.12,0-.34-.07-.49-.11h0C266.3,110.39,266,111.14,265.5,111.4Zm1.7,20.78a1,1,0,0,1-.3,0,1,1,0,0,0,.3,0Zm5.55-16.54h0Zm9.87-29.24c-.12.35-.25.7-.38,1,.13-.35.26-.7.38-1l.57-1.49ZM296,131.16s0-.12.07-.18h0C296.09,131,296,131.11,296,131.16ZM298,113.68s0-.11.07-.17h0C298,113.57,297.94,113.64,298,113.68Zm2.91-38.83c-.2-1.1-.4-2.21-.61-3.31.21,1.1.41,2.21.61,3.31.35,1.64.71,3.28,1.05,4.93C301.58,78.13,301.22,76.49,300.87,74.85Zm1.7,8.75-.42-2.37.42,2.37v0Zm8.07,39.18-.18-.43c0-.28,0-.57,0-.85h0c0,.28,0,.57,0,.85l.18.43c.15.72.31,1.44.45,2.17C311,124.22,310.79,123.5,310.64,122.78Z"/><path class="cls-4" d="M282.7,81.41l0,.08c0,.32,0,.64.1,1q2.81,13.78,5.62,27.58c.1.48.17,1,.26,1.46s-.11.53-.43.59a.12.12,0,0,0-.19,0l-5.12,0h-1.72l-6.61,0a.12.12,0,0,0-.19,0h-1.27l-.86,0h-.42l-.43,0-.11-.47.08-.28.15-.36c.12-.29.25-.59.35-.88q3.94-10.83,7.87-21.66c.51-1.42,1-2.87,1.49-4.3l.09-.2.38-1,.57-1.5Z"/><path class="cls-3" d="M149.19,61.9H147a3.28,3.28,0,0,0-.41-.08c-5.41,0-10.81,0-16.22,0a2.78,2.78,0,0,0-.67.18l0,0-.05,0-.17.27-.37.87c0,.07,0,.13-.07.19-.12.29-.23.59-.34.88a1.72,1.72,0,0,0-.07.21c-.11.22-.24.43-.33.66Q126,71,123.68,76.94l-13.83,35.23c-.63,1.62-1.23,3.24-1.84,4.86l-.55,1-.39-1.38c-.07-.41-.13-.82-.22-1.23s-.17-.72-.25-1.08l-.51-3c0-.22-.09-.43-.14-.64s-.06-.43-.1-.65-.07-.28-.1-.42c-.14-.78-.29-1.56-.43-2.34a3.94,3.94,0,0,1,0,.47C99,95.84,89.78,83.94,78.39,76.53c-.47-.3-1-.59-1.44-.88a23.1,23.1,0,0,1,.84,2.51c1.44,5.49,2.83,11,4.25,16.48q1.53,6,3.08,12c.46,1.78.95,3.56,1.43,5.33.06.22.11.44.17.65a2.85,2.85,0,0,0,.06.52q.8,3.14,1.6,6.27c.38,1.43.77,2.86,1.16,4.29l.12.42a4.52,4.52,0,0,0,.08.63l2.82,11,2.1,8.24c.22.87.25.88,1.15.91h.54l19.89,0c1.45,0,1.19,0,1.62-1.07q2.69-6.37,5.33-12.76c.79-1.89,1.54-3.8,2.31-5.7.12-.29.24-.57.37-.85a.11.11,0,0,0,0-.12l.15-.28a4.09,4.09,0,0,0,.25-.46q3-7.11,5.92-14.22a8.86,8.86,0,0,0,.31-1.12l.17-.16c.25-.55.52-1.08.75-1.64q9-21.67,18.06-43.37c.16-.38.29-.77.46-1.24ZM111,134.11h0c-.34,0-.49-.24-.61-.59.11.33.27.54.62.57,0,0,0,0,0,0l.77-.16Zm14.3-8.76-.23.16.23-.16c.08-.35.15-.7.23-1.06C125.44,124.65,125.37,125,125.29,125.35Zm8.24-30.52h0Z"/><path class="cls-5" d="M105.32,107.26c0-.21-.08-.42-.11-.63s-.09-.44-.13-.65c-.11-.6-.22-1.2-.32-1.79s-.28-1.22-.35-1.58c-2.19-11.37-4.33-22.75-6.75-34.07a8.78,8.78,0,0,0-1-2.66A9.58,9.58,0,0,0,93.44,63a10.87,10.87,0,0,0-3.92-1c-12.32-.08-24.64-.18-37-.16H45.88l27.9,12c1,.6,2.12,1.17,3.17,1.78q.73.42,1.44.87c11.39,7.41,20.65,19.31,27,31.2A3.94,3.94,0,0,0,105.32,107.26Z"/><polygon class="cls-3" points="161.08 62.65 181.65 62.65 164.58 145.03 142.8 144.93 161.08 62.65"/><g class="cls-6"><image width="900" height="440" transform="translate(-566.73 -19.94) scale(0.66 0.61)" xlink:href="../../../../Essay%20writing%20services/downlaod/mastercard-logo-png-5a3a1f282e6103.818127331513758504194124.jpg"/></g></svg>