<svg id="Layer_1" data-name="Layer 1" xmlns="http://www.w3.org/2000/svg" xmlns:xlink="http://www.w3.org/1999/xlink" viewBox="0 0 1919.76 730.99"><defs><style>.cls-1{opacity:0.55;}.cls-2{opacity:0.41;fill:url(#linear-gradient);}.cls-3,.cls-4{opacity:0.69;}.cls-3{fill:url(#linear-gradient-2);}.cls-5{fill:url(#linear-gradient-3);}.cls-6{fill:url(#linear-gradient-4);}.cls-7{fill:url(#linear-gradient-5);}</style><linearGradient id="linear-gradient" x1="-5782.35" y1="-3886.67" x2="-3767.32" y2="-3803.22" gradientTransform="translate(-3866 -3290.54) rotate(180)" gradientUnits="userSpaceOnUse"><stop offset="0" stop-color="#67308c"/><stop offset="1" stop-color="#e84c2f"/></linearGradient><linearGradient id="linear-gradient-2" x1="-5789.04" y1="-3722.65" x2="-3773.62" y2="-3639.18" xlink:href="#linear-gradient"/><linearGradient id="linear-gradient-3" x1="1636.38" y1="194.5" x2="1697.38" y2="194.5" gradientTransform="matrix(1, 0, 0, 1, 0, 0)" xlink:href="#linear-gradient"/><linearGradient id="linear-gradient-4" x1="1604.38" y1="29.5" x2="1633.38" y2="29.5" gradientTransform="matrix(1, 0, 0, 1, 0, 0)" xlink:href="#linear-gradient"/><linearGradient id="linear-gradient-5" x1="1490.55" y1="78.15" x2="1536.85" y2="78.15" gradientTransform="matrix(1, 0, 0, 1, 0, 0)" xlink:href="#linear-gradient"/></defs><title>Artboard 6ldpi</title><g class="cls-1"><path class="cls-2" d="M1919.76,258.45v500S1597.09,1055.36,1010.88,904C247.88,707,0,758.46,0,758.46V240.59S359,69.71,567.76,431.07c145.71,252.27,284.58,253.79,609-154.76,87-109.54,274-95.24,345-17.86C1621,366.62,1766.76,603.69,1919.76,258.45Z"/><path class="cls-3" d="M0,117.11V731H1919.76V95.18s-359-209.81-567.76,233.87C1206.29,638.8,1067.42,640.66,743,139,656,4.54,469,22.1,398,117.11,298.75,249.92,153,541,0,117.11Z"/></g><g class="cls-4"><path class="cls-5" d="M1666.88,225a30.5,30.5,0,1,1,0-61h0a30.5,30.5,0,1,1,0,61Zm0-55.34h0a24.84,24.84,0,1,0,0,49.68h0a24.84,24.84,0,1,0,0-49.68Z"/></g><g class="cls-4"><path class="cls-6" d="M1618.88,44a14.5,14.5,0,0,1,0-29h0a14.5,14.5,0,0,1,0,29Zm0-26.31h0a11.81,11.81,0,0,0,0,23.62h0a11.81,11.81,0,0,0,0-23.62Z"/></g><g class="cls-4"><path class="cls-7" d="M1514.53,101.3l-24-22.32,22.32-24,24,22.32Zm-21.39-22.41,21.3,19.82,19.82-21.3L1513,57.59Z"/></g></svg>