<?xml version="1.0" standalone="no"?><svg xmlns="http://www.w3.org/2000/svg" viewBox="0 0 1440 320"><path fill="#e89a93" fill-opacity="1" d="M0,128L21.8,128C43.6,128,87,128,131,149.3C174.5,171,218,213,262,197.3C305.5,181,349,107,393,80C436.4,53,480,75,524,122.7C567.3,171,611,245,655,229.3C698.2,213,742,107,785,74.7C829.1,43,873,85,916,101.3C960,117,1004,107,1047,112C1090.9,117,1135,139,1178,170.7C1221.8,203,1265,245,1309,256C1352.7,267,1396,245,1418,234.7L1440,224L1440,320L1418.2,320C1396.4,320,1353,320,1309,320C1265.5,320,1222,320,1178,320C1134.5,320,1091,320,1047,320C1003.6,320,960,320,916,320C872.7,320,829,320,785,320C741.8,320,698,320,655,320C610.9,320,567,320,524,320C480,320,436,320,393,320C349.1,320,305,320,262,320C218.2,320,175,320,131,320C87.3,320,44,320,22,320L0,320Z"></path></svg>