<svg id="Layer_1" data-name="Layer 1" xmlns="http://www.w3.org/2000/svg" viewBox="0 0 251.6 251.6"><defs><style>.cls-1{fill:#c3271a;}.cls-2{fill:#fff;}</style></defs><title>Artboard 24ldpi</title><rect class="cls-1" width="251.6" height="251.6"/><path class="cls-2" d="M222.27,77a25.3,25.3,0,0,0-17.8-17.92c-15.7-4.23-78.67-4.23-78.67-4.23s-63,0-78.67,4.23A25.3,25.3,0,0,0,29.33,77c-4.21,15.8-4.21,48.78-4.21,48.78s0,33,4.21,48.78a25.3,25.3,0,0,0,17.8,17.92c15.7,4.23,78.67,4.23,78.67,4.23s63,0,78.67-4.23a25.3,25.3,0,0,0,17.8-17.92c4.21-15.8,4.21-48.78,4.21-48.78S226.48,92.82,222.27,77Z"/><polygon class="cls-1" points="105.21 155.74 105.21 95.86 157.84 125.8 105.21 155.74"/></svg>